<?xml version="1.0" encoding="utf-8" standalone="no"?>
<!DOCTYPE svg PUBLIC "-//W3C//DTD SVG 1.1//EN"
  "http://www.w3.org/Graphics/SVG/1.1/DTD/svg11.dtd">
<svg xmlns:xlink="http://www.w3.org/1999/xlink" width="460.8pt" height="148pt" viewBox="0 0 460.8 148" xmlns="http://www.w3.org/2000/svg" version="1.1" xmlns:c2pa="http://c2pa.org/manifest">
 <metadata><c2pa:manifest>AAAWgmp1bWIAAAAeanVtZGMycGEAEQAQgAAAqgA4m3EDYzJwYQAAABZcanVtYgAAAEdqdW1kYzJtYQARABCAAACqADibcQN1cm46YzJwYToyMDI3YjE5MS1iY2MxLTRiNTYtOWU5OC0zNjQ1M2ZlM2ZmZjcAAAADl2p1bWIAAAApanVtZGMyYXMAEQAQgAAAqgA4m3EDYzJwYS5hc3NlcnRpb25zAAAAALxqdW1iAAAARGp1bWRjYm9yABEAEIAAAKoAOJtxE2MycGEuaW5ncmVkaWVudC52MwAAAAAYYzJzaGUz8Uy+VIwsOmGIM7NEa+4AAABwY2JvcqNpZGM6Zm9ybWF0bWltYWdlL3N2Zyt4bWxqaW5zdGFuY2VJRHgseG1wOmlpZDpkMmRhNzE1MS0xZDY4LTRhYjQtYTRjNi1iOTI1MzBkMmIxNDFscmVsYXRpb25zaGlwaHBhcmVudE9mAAAB4mp1bWIAAABBanVtZGNib3IAEQAQgAAAqgA4m3ETYzJwYS5hY3Rpb25zLnYyAAAAABhjMnNoazrgdCgF9e2/pzBAgpaazgAAAZljYm9yomdhY3Rpb25zgqJmYWN0aW9ua2MycGEub3BlbmVkanBhcmFtZXRlcnOha2luZ3JlZGllbnRzgaJjdXJseC1zZWxmI2p1bWJmPWMycGEuYXNzZXJ0aW9ucy9jMnBhLmluZ3JlZGllbnQudjNkaGFzaFggbIMrBJroQ0l7/K1Ag9frtv9h7P1yfs5piS87gbsnyTikZmFjdGlvbngdY29tLmFudGhyb3BpYy5jbGF1ZGUucHJvdmlkZWRqcGFyYW1ldGVyc6F4H2NvbS5hbnRocm9waWMub3JpZ2luLWNvbmZpZGVuY2VndW5rbm93bmtkZXNjcmlwdGlvbnhmQ2xhdWRlIHByb3ZpZGVkIHRoaXMgZmlsZSBhdCB0aGUgcmVxdWVzdCBvZiBhIHVzZXIgYW5kIG1heSBoYXZlIGNyZWF0ZWQgb3IgbW9kaWZpZWQgdGhlIGZpbGUgY29udGVudHMubXNvZnR3YXJlQWdlbnShZG5hbWVmQ2xhdWRlcmFsbEFjdGlvbnNJbmNsdWRlZPUAAADIanVtYgAAAEBqdW1kY2JvcgARABCAAACqADibcRNjMnBhLmhhc2guZGF0YQAAAAAYYzJzaLXZtlolyFcO9mQHHCjWCWkAAACAY2JvcqVjYWxnZnNoYTI1NmNwYWRMAAAAAAAAAAAAAAAAZGhhc2hYIBNPWR3VFzyC8xgeUR7UG722ktwk7pPsCRXTgABcIybmZG5hbWVuanVtYmYgbWFuaWZlc3RqZXhjbHVzaW9uc4GiZXN0YXJ0GQF1Zmxlbmd0aBkeBAAAAj5qdW1iAAAAJ2p1bWRjMmNsABEAEIAAAKoAOJtxA2MycGEuY2xhaW0udjIAAAACD2Nib3KlY2FsZ2ZzaGEyNTZpc2lnbmF0dXJleE1zZWxmI2p1bWJmPS9jMnBhL3VybjpjMnBhOjIwMjdiMTkxLWJjYzEtNGI1Ni05ZTk4LTM2NDUzZmUzZmZmNy9jMnBhLnNpZ25hdHVyZWppbnN0YW5jZUlEeCx4bXA6aWlkOjAwZWQ0NDE5LWIxODYtNGMzOS04ZThiLWFkMWI3N2VlZjNlZHJjcmVhdGVkX2Fzc2VydGlvbnODomN1cmx4LXNlbGYjanVtYmY9YzJwYS5hc3NlcnRpb25zL2MycGEuaW5ncmVkaWVudC52M2RoYXNoWCBsgysEmuhDSXv8rUCD1+u2/2Hs/XJ+zmmJLzuBuyfJOKJjdXJseCpzZWxmI2p1bWJmPWMycGEuYXNzZXJ0aW9ucy9jMnBhLmFjdGlvbnMudjJkaGFzaFggs14R0jxwZSO8HvhjWFQE+elhzt1IQWUqcxpWR6giweyiY3VybHgpc2VsZiNqdW1iZj1jMnBhLmFzc2VydGlvbnMvYzJwYS5oYXNoLmRhdGFkaGFzaFgg9CCV3NZaek0uNyaAqTd79oI1xuG3E/PXg1Ttq32Y0MB0Y2xhaW1fZ2VuZXJhdG9yX2luZm+jZG5hbWVvQW50aHJvcGljIEZpbGVzZ3ZlcnNpb25lMS4wLjBrc3BlY1ZlcnNpb25lMi40LjAAABA4anVtYgAAAChqdW1kYzJjcwARABCAAACqADibcQNjMnBhLnNpZ25hdHVyZQAAABAIY2JvctKEWQISogEmGCFZAgowggIGMIIBjaADAgECAhRA5aAK7sI50L64g/oGQgU9Z1UTADAKBggqhkjOPQQDAzBJMRcwFQYDVQQKEw5BbnRocm9waWMsIFBCQzEuMCwGA1UEAxMlQW50aHJvcGljIENvbnRlbnQgQ3JlZGVudGlhbHMgUm9vdCBDQTAeFw0yNjA4MDcxODQzNTZaFw0yODA4MDYxOTQzNTZaMEQxFzAVBgNVBAoTDkFudGhyb3BpYywgUEJDMSkwJwYDVQQDEyBBbnRocm9waWMgQ2xhdWRlIENvbnRlbnQgU2lnbmluZzBZMBMGByqGSM49AgEGCCqGSM49AwEHA0IABJh6CmvLUBgFFNU0vUKlOVtE6djd17L5SuwX0LemFisBM3dkd/3cyjxFA3Qo5S46fX0/ihY0VZ7mfb9KF703t5OjWDBWMA4GA1UdDwEB/wQEAwIHgDAVBgNVHSUEDjAMBgorBgEEAYPoXgIBMAwGA1UdEwEB/wQCMAAwHwYDVR0jBBgwFoAUzlHiBIFOZFsj+OPEz5o+nMHXXMIwCgYIKoZIzj0EAwMDZwAwZAIwMXMdFJ4BetLLVY7ORuE9noqbbAZOZn/aArXyTwFAZfKrPzxF2vPoJNf1+UCdg1XGAjBwX1zd9WGqYkqmL5SFqw1QySjr1zJfpJM9+1rdDwSPLMOPOjKuiXjoU/pUUeG9RwmhY3BhZFkNngAAAAAAAAAAAAAAAAAAAAAAAAAAAAAAAAAAAAAAAAAAAAAAAAAAAAAAAAAAAAAAAAAAAAAAAAAAAAAAAAAAAAAAAAAAAAAAAAAAAAAAAAAAAAAAAAAAAAAAAAAAAAAAAAAAAAAAAAAAAAAAAAAAAAAAAAAAAAAAAAAAAAAAAAAAAAAAAAAAAAAAAAAAAAAAAAAAAAAAAAAAAAAAAAAAAAAAAAAAAAAAAAAAAAAAAAAAAAAAAAAAAAAAAAAAAAAAAAAAAAAAAAAAAAAAAAAAAAAAAAAAAAAAAAAAAAAAAAAAAAAAAAAAAAAAAAAAAAAAAAAAAAAAAAAAAAAAAAAAAAAAAAAAAAAAAAAAAAAAAAAAAAAAAAAAAAAAAAAAAAAAAAAAAAAAAAAAAAAAAAAAAAAAAAAAAAAAAAAAAAAAAAAAAAAAAAAAAAAAAAAAAAAAAAAAAAAAAAAAAAAAAAAAAAAAAAAAAAAAAAAAAAAAAAAAAAAAAAAAAAAAAAAAAAAAAAAAAAAAAAAAAAAAAAAAAAAAAAAAAAAAAAAAAAAAAAAAAAAAAAAAAAAAAAAAAAAAAAAAAAAAAAAAAAAAAAAAAAAAAAAAAAAAAAAAAAAAAAAAAAAAAAAAAAAAAAAAAAAAAAAAAAAAAAAAAAAAAAAAAAAAAAAAAAAAAAAAAAAAAAAAAAAAAAAAAAAAAAAAAAAAAAAAAAAAAAAAAAAAAAAAAAAAAAAAAAAAAAAAAAAAAAAAAAAAAAAAAAAAAAAAAAAAAAAAAAAAAAAAAAAAAAAAAAAAAAAAAAAAAAAAAAAAAAAAAAAAAAAAAAAAAAAAAAAAAAAAAAAAAAAAAAAAAAAAAAAAAAAAAAAAAAAAAAAAAAAAAAAAAAAAAAAAAAAAAAAAAAAAAAAAAAAAAAAAAAAAAAAAAAAAAAAAAAAAAAAAAAAAAAAAAAAAAAAAAAAAAAAAAAAAAAAAAAAAAAAAAAAAAAAAAAAAAAAAAAAAAAAAAAAAAAAAAAAAAAAAAAAAAAAAAAAAAAAAAAAAAAAAAAAAAAAAAAAAAAAAAAAAAAAAAAAAAAAAAAAAAAAAAAAAAAAAAAAAAAAAAAAAAAAAAAAAAAAAAAAAAAAAAAAAAAAAAAAAAAAAAAAAAAAAAAAAAAAAAAAAAAAAAAAAAAAAAAAAAAAAAAAAAAAAAAAAAAAAAAAAAAAAAAAAAAAAAAAAAAAAAAAAAAAAAAAAAAAAAAAAAAAAAAAAAAAAAAAAAAAAAAAAAAAAAAAAAAAAAAAAAAAAAAAAAAAAAAAAAAAAAAAAAAAAAAAAAAAAAAAAAAAAAAAAAAAAAAAAAAAAAAAAAAAAAAAAAAAAAAAAAAAAAAAAAAAAAAAAAAAAAAAAAAAAAAAAAAAAAAAAAAAAAAAAAAAAAAAAAAAAAAAAAAAAAAAAAAAAAAAAAAAAAAAAAAAAAAAAAAAAAAAAAAAAAAAAAAAAAAAAAAAAAAAAAAAAAAAAAAAAAAAAAAAAAAAAAAAAAAAAAAAAAAAAAAAAAAAAAAAAAAAAAAAAAAAAAAAAAAAAAAAAAAAAAAAAAAAAAAAAAAAAAAAAAAAAAAAAAAAAAAAAAAAAAAAAAAAAAAAAAAAAAAAAAAAAAAAAAAAAAAAAAAAAAAAAAAAAAAAAAAAAAAAAAAAAAAAAAAAAAAAAAAAAAAAAAAAAAAAAAAAAAAAAAAAAAAAAAAAAAAAAAAAAAAAAAAAAAAAAAAAAAAAAAAAAAAAAAAAAAAAAAAAAAAAAAAAAAAAAAAAAAAAAAAAAAAAAAAAAAAAAAAAAAAAAAAAAAAAAAAAAAAAAAAAAAAAAAAAAAAAAAAAAAAAAAAAAAAAAAAAAAAAAAAAAAAAAAAAAAAAAAAAAAAAAAAAAAAAAAAAAAAAAAAAAAAAAAAAAAAAAAAAAAAAAAAAAAAAAAAAAAAAAAAAAAAAAAAAAAAAAAAAAAAAAAAAAAAAAAAAAAAAAAAAAAAAAAAAAAAAAAAAAAAAAAAAAAAAAAAAAAAAAAAAAAAAAAAAAAAAAAAAAAAAAAAAAAAAAAAAAAAAAAAAAAAAAAAAAAAAAAAAAAAAAAAAAAAAAAAAAAAAAAAAAAAAAAAAAAAAAAAAAAAAAAAAAAAAAAAAAAAAAAAAAAAAAAAAAAAAAAAAAAAAAAAAAAAAAAAAAAAAAAAAAAAAAAAAAAAAAAAAAAAAAAAAAAAAAAAAAAAAAAAAAAAAAAAAAAAAAAAAAAAAAAAAAAAAAAAAAAAAAAAAAAAAAAAAAAAAAAAAAAAAAAAAAAAAAAAAAAAAAAAAAAAAAAAAAAAAAAAAAAAAAAAAAAAAAAAAAAAAAAAAAAAAAAAAAAAAAAAAAAAAAAAAAAAAAAAAAAAAAAAAAAAAAAAAAAAAAAAAAAAAAAAAAAAAAAAAAAAAAAAAAAAAAAAAAAAAAAAAAAAAAAAAAAAAAAAAAAAAAAAAAAAAAAAAAAAAAAAAAAAAAAAAAAAAAAAAAAAAAAAAAAAAAAAAAAAAAAAAAAAAAAAAAAAAAAAAAAAAAAAAAAAAAAAAAAAAAAAAAAAAAAAAAAAAAAAAAAAAAAAAAAAAAAAAAAAAAAAAAAAAAAAAAAAAAAAAAAAAAAAAAAAAAAAAAAAAAAAAAAAAAAAAAAAAAAAAAAAAAAAAAAAAAAAAAAAAAAAAAAAAAAAAAAAAAAAAAAAAAAAAAAAAAAAAAAAAAAAAAAAAAAAAAAAAAAAAAAAAAAAAAAAAAAAAAAAAAAAAAAAAAAAAAAAAAAAAAAAAAAAAAAAAAAAAAAAAAAAAAAAAAAAAAAAAAAAAAAAAAAAAAAAAAAAAAAAAAAAAAAAAAAAAAAAAAAAAAAAAAAAAAAAAAAAAAAAAAAAAAAAAAAAAAAAAAAAAAAAAAAAAAAAAAAAAAAAAAAAAAAAAAAAAAAAAAAAAAAAAAAAAAAAAAAAAAAAAAAAAAAAAAAAAAAAAAAAAAAAAAAAAAAAAAAAAAAAAAAAAAAAAAAAAAAAAAAAAAAAAAAAAAAAAAAAAAAAAAAAAAAAAAAAAAAAAAAAAAAAAAAAAAAAAAAAAAAAAAAAAAAAAAAAAAAAAAAAAAAAAAAAAAAAAAAAAAAAAAAAAAAAAAAAAAAAAAAAAAAAAAAAAAAAAAAAAAAAAAAAAAAAAAAAAAAAAAAAAAAAAAAAAAAAAAAAAAAAAAAAAAAAAAAAAAAAAAAAAAAAAAAAAAAAAAAAAAAAAAAAAAAAAAAAAAAAAAAAAAAAAAAAAAAAAAAAAAAAAAAAAAAAAAAAAAAAAAAAAAAAAAAAAAAAAAAAAAAAAAAAAAAAAAAAAAAAAAAAAAAAAAAAAAAAAAAAAAAAAAAAAAAAAAAAAAAAAAAAAAAAAAAAAAAAAAAAAAAAAAAAAAAAAAAAAAAAAAAAAAAAAAAAAAAAAAAAAAAAAAAAAAAAAAAAAAAAAAAAAAAAAAAAAAAAAAAAAAAAAAAAAAAAAAAAAAAAAAAAAAAAAAAAAAAAAAAAAAAAAAAAAAAAAAAAAAAAAAAAAAAAAAAAAAAAAAAAAAAAAAAAAAAAAAAAAAAAAAAAAAAAAAAAAAAAAAAAAAAAAAAAAAAAAAAAAAAAAAAAAAAAAAAAAAAAAAAAAAAAAAAAAAAAAAAAAAAAAAAAAAAAAAAAAAAAAAAAAAAAAAAAAAAAAAAAAAAAAAAAAAAAAAAAAAAAAAAAAAAAAAAAAAAAAAAAAAAAAAAAAAAAAAAAAAAAAAAAAAAAAAAAAAAAAAAAAAAAAAAAAAAAAAAAAAAAAAAAAAAAAAAAAAAAAAAAAAAAAAAAAAAAAAAAAAAAAAAAAAAAAAAAAAAAAAAAAAAAAAAAAAAAAAAAAAAAAAAAAAAAAAAAAAAAAAAAAAAAAAAAAAAAAAAAAAAAAAAAAAAAAAAAAAAAAAAAAAAAAAAAAAAAAAAAAAAAAAAAAAAAAAAAAAAAAAAAAAAAAAAAAAAAAAAAAAAAAAAAAAAAAAAAAAAAAAAAAAAAAAAAAAAAAAAAAAAAAAAAAAAAAAAAAAAAAAAAAAAAAAAAAAAAAAAAAAAAAAAAAAAAAAAAAAAAAAAAAAAAAAAAAAAAAAAAAAAAAAAAAAAAAAAAAAAAAAAAAAAAAAAAAAAAAAAAAAAAAAAAAAAAAAAAAAAAAAAAAAAAAAAAAAAAAAAAAAAAAAAAAAAAAAAAAAAAAAAAAAAAAAAAAAAAAAAAAAAAAAAAAAAAAAAAAAAAAAAAAAAAAAAAAAAAAAAAAAAAAAAAAAAAAAAAAAAAAAAAAAAAAAAAAAAAAAAAAAAAAAAAAAAAAAAAAAAAAAAAAAAAAAAAAAAAAAAAAAAAAAAAAAAAAAAAAAAAAAAAAAAAAAAAAAAAAAAAAAAAAAAAAAAAAAAAAAAAAAAAAAAAAAAAAAAAAAAAAAAAAAAAAAAAAAAAAAAAAAAAAAAAAAAAAAAAAAAAAAAAAAAAAAAAAAAAAAAAAAAAAAAAAAAAAAAAAAAAAAAAAAAAAAAAAAAAAAAAAAAAAAAAAAAAAAAAAAAAAAAAAAAAAAAAAAAAAAAAAAAAAAAAAAAAAAAAAAAAAAAAAAAAAAAAAAAAAAAAAAAAAAAAAAAAAAAAAAAAAAAAAAAAAAAAAAAAAAAAAAAPZYQPmMnFa2HsnugNDd05WlurPFZUna+Q255dHqD1QXNJA3v/bIpIblk050468Ol/vKWNiOLL3nk+xh0jTp8vc7lGw=</c2pa:manifest>
  <rdf:RDF xmlns:dc="http://purl.org/dc/elements/1.1/" xmlns:cc="http://creativecommons.org/ns#" xmlns:rdf="http://www.w3.org/1999/02/22-rdf-syntax-ns#">
   <cc:Work>
    <dc:type rdf:resource="http://purl.org/dc/dcmitype/StillImage"/>
    <dc:date>2026-09-19T11:16:42.769127</dc:date>
    <dc:format>image/svg+xml</dc:format>
    <dc:creator>
     <cc:Agent>
      <dc:title>Matplotlib v3.10.8, https://matplotlib.org/</dc:title>
     </cc:Agent>
    </dc:creator>
   </cc:Work>
  </rdf:RDF>
 </metadata>
 <defs>
  <style type="text/css">*{stroke-linejoin: round; stroke-linecap: butt}</style>
 </defs>
 <g id="figure_1">
  <g id="patch_1">
   <path d="M 0 148 
L 460.8 148 
L 460.8 0 
L 0 0 
z
" style="fill: #ffffff"/>
  </g>
  <g id="axes_1">
   <g id="patch_2">
    <path d="M 9.216 56 
L 122.428664 56 
L 122.428664 82 
L 9.216 82 
z
" clip-path="url(#pd1f9c19b6f)" style="fill: #111111"/>
   </g>
   <g id="patch_3">
    <path d="M 122.428664 56 
L 218.869081 56 
L 218.869081 82 
L 122.428664 82 
z
" clip-path="url(#pd1f9c19b6f)" style="fill: #111111"/>
   </g>
   <g id="patch_4">
    <path d="M 218.869081 56 
L 292.247659 56 
L 292.247659 82 
L 218.869081 82 
z
" clip-path="url(#pd1f9c19b6f)" style="fill: #111111"/>
   </g>
   <g id="patch_5">
    <path d="M 292.247659 56 
L 315.309498 56 
L 315.309498 82 
L 292.247659 82 
z
" clip-path="url(#pd1f9c19b6f)" style="fill: #111111"/>
   </g>
   <g id="patch_6">
    <path d="M 315.309498 56 
L 430.618692 56 
L 430.618692 82 
L 315.309498 82 
z
" clip-path="url(#pd1f9c19b6f)" style="fill: #9a9a9a"/>
   </g>
   <g id="patch_7">
    <path d="M 430.618692 56 
L 451.584 56 
L 451.584 82 
L 430.618692 82 
z
" clip-path="url(#pd1f9c19b6f)" style="fill: #9a9a9a"/>
   </g>
   <g id="line2d_1">
    <path d="M 303.778578 82 
L 303.778578 101.5 
" clip-path="url(#pd1f9c19b6f)" style="fill: none; stroke: #111111; stroke-width: 0.6"/>
   </g>
   <g id="line2d_2">
    <path d="M 441.101346 82 
L 441.101346 101.5 
" clip-path="url(#pd1f9c19b6f)" style="fill: none; stroke: #111111; stroke-width: 0.6"/>
   </g>
   <g id="line2d_3">
    <path d="M 231.448265 30 
L 231.448265 56 
" clip-path="url(#pd1f9c19b6f)" style="fill: none; stroke-dasharray: 3.6,3.6; stroke-dashoffset: 0; stroke: #1b4fa0; stroke-width: 1.2"/>
   </g>
   <g id="line2d_4">
    <path d="M 231.448265 56 
L 231.448265 82 
" clip-path="url(#pd1f9c19b6f)" style="fill: none; stroke-dasharray: 3.6,3.6; stroke-dashoffset: 0; stroke: #ffffff; stroke-width: 1.2"/>
   </g>
   <g id="line2d_5">
    <path d="M 231.448265 82 
L 231.448265 112.5 
" clip-path="url(#pd1f9c19b6f)" style="fill: none; stroke-dasharray: 3.6,3.6; stroke-dashoffset: 0; stroke: #1b4fa0; stroke-width: 1.2"/>
   </g>
   <g id="text_1">
    <!-- 54 -->
    <g style="fill: #ffffff" transform="translate(59.691863 71.8) scale(0.1 -0.1)">
     <defs>
      <path id="Jost-Medium-35" d="M 3565 1459 
Q 3565 1914 3382 2246 
Q 3200 2579 2893 2764 
Q 2586 2950 2214 2950 
Q 2029 2950 1849 2912 
Q 1670 2874 1504 2790 
L 1786 3814 
L 3520 3814 
L 3520 4480 
L 1216 4480 
L 608 2016 
Q 838 2157 1033 2233 
Q 1229 2310 1417 2339 
Q 1606 2368 1805 2368 
Q 2061 2368 2278 2265 
Q 2496 2163 2624 1971 
Q 2752 1779 2752 1504 
Q 2752 1235 2640 1040 
Q 2528 845 2317 739 
Q 2106 634 1805 634 
Q 1594 634 1379 720 
Q 1165 806 985 950 
Q 806 1094 672 1274 
L 224 723 
Q 397 512 627 329 
Q 858 147 1174 38 
Q 1491 -70 1901 -70 
Q 2227 -70 2521 22 
Q 2816 115 3053 304 
Q 3290 493 3427 781 
Q 3565 1069 3565 1459 
z
" transform="scale(0.015625)"/>
      <path id="Jost-Medium-34" d="M 115 858 
L 3802 858 
L 3802 1510 
L 2886 1510 
L 2778 1459 
L 1222 1459 
L 2374 3130 
L 2374 1197 
L 2323 1126 
L 2323 0 
L 3098 0 
L 3098 4480 
L 2643 4480 
L 115 858 
z
" transform="scale(0.015625)"/>
     </defs>
     <use xlink:href="#Jost-Medium-35"/>
     <use xlink:href="#Jost-Medium-34" transform="translate(59.699997 0)"/>
    </g>
   </g>
   <g id="text_2">
    <!-- CAF -->
    <g style="fill: #111111" transform="translate(58.214832 95.5) scale(0.08 -0.08)">
     <defs>
      <path id="Jost-Medium-43" d="M 1062 2240 
Q 1062 2720 1276 3075 
Q 1491 3430 1836 3625 
Q 2182 3821 2592 3821 
Q 2912 3821 3171 3737 
Q 3430 3654 3635 3510 
Q 3840 3366 3994 3187 
L 3994 4083 
Q 3718 4320 3388 4441 
Q 3059 4563 2566 4563 
Q 2074 4563 1648 4393 
Q 1222 4224 908 3913 
Q 595 3603 419 3177 
Q 243 2752 243 2240 
Q 243 1734 419 1308 
Q 595 883 908 569 
Q 1222 256 1648 89 
Q 2074 -77 2566 -77 
Q 3059 -77 3388 44 
Q 3718 166 3994 397 
L 3994 1299 
Q 3840 1114 3635 970 
Q 3430 826 3171 742 
Q 2912 659 2592 659 
Q 2182 659 1836 857 
Q 1491 1056 1276 1411 
Q 1062 1766 1062 2240 
z
" transform="scale(0.015625)"/>
      <path id="Jost-Medium-41" d="M 1037 1152 
L 3405 1152 
L 3264 1792 
L 1184 1792 
L 1037 1152 
z
M 2208 3213 
L 2925 1549 
L 2938 1363 
L 3546 0 
L 4403 0 
L 2208 4730 
L 19 0 
L 870 0 
L 1491 1402 
L 1504 1568 
L 2208 3213 
z
" transform="scale(0.015625)"/>
      <path id="Jost-Medium-46" d="M 966 3802 
L 2970 3802 
L 2970 4480 
L 966 4480 
L 966 3802 
z
M 966 2022 
L 2906 2022 
L 2906 2682 
L 966 2682 
L 966 2022 
z
M 499 4480 
L 499 0 
L 1242 0 
L 1242 4480 
L 499 4480 
z
" transform="scale(0.015625)"/>
     </defs>
     <use xlink:href="#Jost-Medium-43"/>
     <use xlink:href="#Jost-Medium-41" transform="translate(69.099991 0)"/>
     <use xlink:href="#Jost-Medium-46" transform="translate(138.099976 0)"/>
    </g>
   </g>
   <g id="text_3">
    <!-- 46 -->
    <g style="fill: #ffffff" transform="translate(164.433247 71.8) scale(0.1 -0.1)">
     <defs>
      <path id="Jost-Medium-36" d="M 1062 1510 
Q 1062 1786 1180 2000 
Q 1299 2214 1504 2332 
Q 1709 2451 1965 2451 
Q 2221 2451 2425 2332 
Q 2630 2214 2748 2000 
Q 2867 1786 2867 1510 
Q 2867 1235 2748 1030 
Q 2630 826 2425 707 
Q 2221 589 1965 589 
Q 1709 589 1504 707 
Q 1299 826 1180 1030 
Q 1062 1235 1062 1510 
z
M 2118 4474 
L 698 2566 
Q 531 2355 425 2089 
Q 320 1824 320 1510 
Q 320 1018 541 659 
Q 762 301 1133 112 
Q 1504 -77 1965 -77 
Q 2426 -77 2797 112 
Q 3168 301 3389 659 
Q 3610 1018 3610 1510 
Q 3610 1830 3498 2099 
Q 3386 2368 3197 2563 
Q 3008 2758 2765 2864 
Q 2522 2970 2259 2970 
Q 2029 2970 1862 2915 
Q 1696 2861 1549 2694 
L 1658 2714 
L 3078 4474 
L 2118 4474 
z
" transform="scale(0.015625)"/>
     </defs>
     <use xlink:href="#Jost-Medium-34"/>
     <use xlink:href="#Jost-Medium-36" transform="translate(62.899994 0)"/>
    </g>
   </g>
   <g id="text_4">
    <!-- AFC -->
    <g style="fill: #111111" transform="translate(163.041372 95.5) scale(0.08 -0.08)">
     <use xlink:href="#Jost-Medium-41"/>
     <use xlink:href="#Jost-Medium-46" transform="translate(68.999985 0)"/>
     <use xlink:href="#Jost-Medium-43" transform="translate(121.099976 0)"/>
    </g>
   </g>
   <g id="text_5">
    <!-- 35 -->
    <g style="fill: #ffffff" transform="translate(249.693526 71.8) scale(0.1 -0.1)">
     <defs>
      <path id="Jost-Medium-33" d="M 1677 2195 
Q 2150 2195 2518 2336 
Q 2886 2477 3097 2739 
Q 3309 3002 3309 3341 
Q 3309 3674 3145 3946 
Q 2982 4218 2675 4384 
Q 2368 4550 1933 4550 
Q 1523 4550 1209 4387 
Q 896 4224 720 3942 
Q 544 3661 544 3290 
L 1254 3290 
Q 1254 3558 1452 3734 
Q 1651 3910 1939 3910 
Q 2144 3910 2278 3833 
Q 2413 3757 2480 3619 
Q 2547 3482 2547 3302 
Q 2547 3162 2486 3034 
Q 2426 2906 2314 2806 
Q 2202 2707 2042 2652 
Q 1882 2598 1677 2598 
L 1677 2195 
z
M 1901 -77 
Q 2362 -77 2707 83 
Q 3053 243 3245 531 
Q 3437 819 3437 1203 
Q 3437 1536 3302 1776 
Q 3168 2016 2928 2169 
Q 2688 2323 2368 2393 
Q 2048 2464 1677 2464 
L 1677 2035 
Q 1907 2035 2089 1984 
Q 2272 1933 2403 1837 
Q 2534 1741 2604 1600 
Q 2675 1459 2675 1280 
Q 2675 1056 2582 899 
Q 2490 742 2317 659 
Q 2144 576 1914 576 
Q 1690 576 1507 662 
Q 1325 749 1219 909 
Q 1114 1069 1114 1280 
L 352 1280 
Q 352 1005 461 758 
Q 570 512 771 323 
Q 973 134 1257 28 
Q 1542 -77 1901 -77 
z
" transform="scale(0.015625)"/>
     </defs>
     <use xlink:href="#Jost-Medium-33"/>
     <use xlink:href="#Jost-Medium-35" transform="translate(57.599991 0)"/>
    </g>
   </g>
   <g id="text_6">
    <!-- CONCACAF -->
    <g style="fill: #111111" transform="translate(239.609212 95.5) scale(0.08 -0.08)">
     <defs>
      <path id="Jost-Medium-4f" d="M 1043 2240 
Q 1043 2701 1241 3062 
Q 1440 3424 1782 3629 
Q 2125 3834 2566 3834 
Q 3021 3834 3363 3629 
Q 3706 3424 3898 3062 
Q 4090 2701 4090 2240 
Q 4090 1779 3894 1420 
Q 3699 1062 3356 854 
Q 3014 646 2566 646 
Q 2125 646 1782 854 
Q 1440 1062 1241 1420 
Q 1043 1779 1043 2240 
z
M 243 2240 
Q 243 1741 416 1312 
Q 589 883 902 569 
Q 1216 256 1641 80 
Q 2067 -96 2566 -96 
Q 3078 -96 3500 80 
Q 3923 256 4236 569 
Q 4550 883 4723 1312 
Q 4896 1741 4896 2240 
Q 4896 2746 4723 3168 
Q 4550 3590 4233 3900 
Q 3917 4211 3494 4387 
Q 3072 4563 2566 4563 
Q 2074 4563 1648 4387 
Q 1222 4211 905 3900 
Q 589 3590 416 3168 
Q 243 2746 243 2240 
z
" transform="scale(0.015625)"/>
      <path id="Jost-Medium-4e" d="M 3770 4480 
L 3770 1472 
L 499 4704 
L 499 0 
L 1242 0 
L 1242 3008 
L 4512 -224 
L 4512 4480 
L 3770 4480 
z
" transform="scale(0.015625)"/>
     </defs>
     <use xlink:href="#Jost-Medium-43"/>
     <use xlink:href="#Jost-Medium-4f" transform="translate(69.099991 0)"/>
     <use xlink:href="#Jost-Medium-4e" transform="translate(149.399979 0)"/>
     <use xlink:href="#Jost-Medium-43" transform="translate(227.699966 0)"/>
     <use xlink:href="#Jost-Medium-41" transform="translate(296.799957 0)"/>
     <use xlink:href="#Jost-Medium-43" transform="translate(365.799942 0)"/>
     <use xlink:href="#Jost-Medium-41" transform="translate(434.899933 0)"/>
     <use xlink:href="#Jost-Medium-46" transform="translate(503.899918 0)"/>
    </g>
   </g>
   <g id="text_7">
    <!-- 11 -->
    <g style="fill: #ffffff" transform="translate(299.037953 71.8) scale(0.1 -0.1)">
     <defs>
      <path id="Jost-Medium-31" d="M 480 3430 
L 1523 3718 
L 1523 0 
L 2266 0 
L 2266 4550 
L 480 4147 
L 480 3430 
z
" transform="scale(0.015625)"/>
     </defs>
     <use xlink:href="#Jost-Medium-31"/>
     <use xlink:href="#Jost-Medium-31" transform="translate(47.399994 0)"/>
    </g>
   </g>
   <g id="text_8">
    <!-- OFC -->
    <g style="fill: #111111" transform="translate(295.719203 109.5) scale(0.08 -0.08)">
     <use xlink:href="#Jost-Medium-4f"/>
     <use xlink:href="#Jost-Medium-46" transform="translate(80.299988 0)"/>
     <use xlink:href="#Jost-Medium-43" transform="translate(132.399979 0)"/>
    </g>
   </g>
   <g id="text_9">
    <!-- 55 -->
    <g style="fill: #111111" transform="translate(366.993782 71.8) scale(0.1 -0.1)">
     <use xlink:href="#Jost-Medium-35"/>
     <use xlink:href="#Jost-Medium-35" transform="translate(59.699997 0)"/>
    </g>
   </g>
   <g id="text_10">
    <!-- UEFA -->
    <g style="fill: #111111" transform="translate(363.212845 95.5) scale(0.08 -0.08)">
     <defs>
      <path id="Jost-Medium-55" d="M 467 4480 
L 467 1472 
Q 467 1101 585 809 
Q 704 518 921 313 
Q 1139 109 1440 0 
Q 1741 -109 2099 -109 
Q 2458 -109 2758 0 
Q 3059 109 3280 313 
Q 3501 518 3619 809 
Q 3738 1101 3738 1472 
L 3738 4480 
L 2976 4480 
L 2976 1504 
Q 2976 1094 2755 838 
Q 2534 582 2099 582 
Q 1670 582 1446 838 
Q 1222 1094 1222 1504 
L 1222 4480 
L 467 4480 
z
" transform="scale(0.015625)"/>
      <path id="Jost-Medium-45" d="M 966 0 
L 3226 0 
L 3226 666 
L 966 666 
L 966 0 
z
M 966 3814 
L 3226 3814 
L 3226 4480 
L 966 4480 
L 966 3814 
z
M 966 2074 
L 3098 2074 
L 3098 2726 
L 966 2726 
L 966 2074 
z
M 499 4480 
L 499 0 
L 1242 0 
L 1242 4480 
L 499 4480 
z
" transform="scale(0.015625)"/>
     </defs>
     <use xlink:href="#Jost-Medium-55"/>
     <use xlink:href="#Jost-Medium-45" transform="translate(65.599991 0)"/>
     <use xlink:href="#Jost-Medium-46" transform="translate(122.699982 0)"/>
     <use xlink:href="#Jost-Medium-41" transform="translate(174.799973 0)"/>
    </g>
   </g>
   <g id="text_11">
    <!-- 10 -->
    <g style="fill: #111111" transform="translate(435.606033 71.8) scale(0.1 -0.1)">
     <defs>
      <path id="Jost-Medium-30" d="M 998 2240 
Q 998 2598 1068 2899 
Q 1139 3200 1270 3417 
Q 1402 3635 1587 3753 
Q 1773 3872 2003 3872 
Q 2234 3872 2416 3753 
Q 2598 3635 2729 3417 
Q 2861 3200 2931 2899 
Q 3002 2598 3002 2240 
Q 3002 1882 2931 1581 
Q 2861 1280 2729 1062 
Q 2598 845 2416 726 
Q 2234 608 2003 608 
Q 1773 608 1587 726 
Q 1402 845 1270 1062 
Q 1139 1280 1068 1581 
Q 998 1882 998 2240 
z
M 256 2240 
Q 256 1542 477 1024 
Q 698 506 1091 218 
Q 1485 -70 2003 -70 
Q 2528 -70 2918 218 
Q 3309 506 3526 1024 
Q 3744 1542 3744 2240 
Q 3744 2938 3526 3456 
Q 3309 3974 2918 4262 
Q 2528 4550 2003 4550 
Q 1485 4550 1091 4262 
Q 698 3974 477 3456 
Q 256 2938 256 2240 
z
" transform="scale(0.015625)"/>
     </defs>
     <use xlink:href="#Jost-Medium-31"/>
     <use xlink:href="#Jost-Medium-30" transform="translate(47.399994 0)"/>
    </g>
   </g>
   <g id="text_12">
    <!-- CONMEBOL -->
    <g style="fill: #111111" transform="translate(406.979 109.5) scale(0.08 -0.08)">
     <defs>
      <path id="Jost-Medium-4d" d="M 1331 2726 
L 2694 416 
L 4064 2726 
L 4371 0 
L 5152 0 
L 4538 4704 
L 2694 1664 
L 858 4704 
L 243 0 
L 1024 0 
L 1331 2726 
z
" transform="scale(0.015625)"/>
      <path id="Jost-Medium-42" d="M 1075 2310 
L 1850 2310 
Q 2278 2310 2598 2432 
Q 2918 2554 3100 2787 
Q 3283 3021 3283 3354 
Q 3283 3738 3100 3987 
Q 2918 4237 2598 4358 
Q 2278 4480 1850 4480 
L 499 4480 
L 499 0 
L 1926 0 
Q 2406 0 2768 137 
Q 3130 275 3334 563 
Q 3539 851 3539 1293 
Q 3539 1613 3411 1843 
Q 3283 2074 3059 2221 
Q 2835 2368 2544 2441 
Q 2253 2515 1926 2515 
L 1075 2515 
L 1075 2093 
L 1882 2093 
Q 2074 2093 2234 2051 
Q 2394 2010 2515 1917 
Q 2637 1824 2701 1689 
Q 2765 1555 2765 1370 
Q 2765 1120 2649 957 
Q 2534 794 2336 710 
Q 2138 627 1882 627 
L 1254 627 
L 1254 3859 
L 1798 3859 
Q 2118 3859 2313 3705 
Q 2509 3552 2509 3270 
Q 2509 3085 2419 2953 
Q 2330 2822 2170 2752 
Q 2010 2682 1798 2682 
L 1075 2682 
L 1075 2310 
z
" transform="scale(0.015625)"/>
      <path id="Jost-Medium-4c" d="M 499 4480 
L 499 0 
L 3034 0 
L 3034 678 
L 1254 678 
L 1254 4480 
L 499 4480 
z
" transform="scale(0.015625)"/>
     </defs>
     <use xlink:href="#Jost-Medium-43"/>
     <use xlink:href="#Jost-Medium-4f" transform="translate(69.099991 0)"/>
     <use xlink:href="#Jost-Medium-4e" transform="translate(149.399979 0)"/>
     <use xlink:href="#Jost-Medium-4d" transform="translate(227.699966 0)"/>
     <use xlink:href="#Jost-Medium-45" transform="translate(311.999954 0)"/>
     <use xlink:href="#Jost-Medium-42" transform="translate(369.099945 0)"/>
     <use xlink:href="#Jost-Medium-4f" transform="translate(429.199936 0)"/>
     <use xlink:href="#Jost-Medium-4c" transform="translate(509.499924 0)"/>
    </g>
   </g>
   <g id="text_13">
    <!-- majority: 106 -->
    <g style="fill: #1b4fa0" transform="translate(165.35764 109.5) scale(0.1 -0.1)">
     <defs>
      <path id="Jost-Bold-6d" d="M 4870 1894 
Q 4870 2253 4780 2502 
Q 4691 2752 4489 2883 
Q 4288 3014 3942 3014 
Q 3642 3014 3405 2886 
Q 3168 2758 3008 2528 
Q 2918 2765 2713 2889 
Q 2509 3014 2163 3014 
Q 1862 3014 1648 2880 
Q 1434 2746 1312 2509 
L 1312 2944 
L 378 2944 
L 378 0 
L 1312 0 
L 1312 1792 
Q 1312 1971 1366 2092 
Q 1421 2214 1520 2275 
Q 1619 2336 1747 2336 
Q 1946 2336 2032 2198 
Q 2118 2061 2118 1792 
L 2118 0 
L 3091 0 
L 3091 1792 
Q 3091 1971 3145 2092 
Q 3200 2214 3299 2275 
Q 3398 2336 3526 2336 
Q 3725 2336 3811 2198 
Q 3898 2061 3898 1792 
L 3898 0 
L 4870 0 
L 4870 1894 
z
" transform="scale(0.015625)"/>
      <path id="Jost-Bold-61" d="M 1126 922 
Q 1126 1030 1177 1104 
Q 1229 1178 1331 1216 
Q 1434 1254 1606 1254 
Q 1830 1254 2032 1193 
Q 2234 1133 2387 1018 
L 2387 1446 
Q 2310 1530 2156 1606 
Q 2003 1683 1788 1734 
Q 1574 1786 1306 1786 
Q 755 1786 454 1539 
Q 154 1293 154 870 
Q 154 570 298 358 
Q 442 147 682 41 
Q 922 -64 1203 -64 
Q 1485 -64 1728 35 
Q 1971 134 2124 329 
Q 2278 525 2278 806 
L 2176 1190 
Q 2176 986 2086 845 
Q 1997 704 1856 633 
Q 1715 563 1549 563 
Q 1434 563 1338 604 
Q 1242 646 1184 726 
Q 1126 806 1126 922 
z
M 698 2042 
Q 762 2080 902 2141 
Q 1043 2202 1232 2246 
Q 1421 2291 1619 2291 
Q 1754 2291 1859 2265 
Q 1965 2240 2035 2182 
Q 2106 2125 2141 2045 
Q 2176 1965 2176 1856 
L 2176 0 
L 3104 0 
L 3104 2074 
Q 3104 2381 2925 2592 
Q 2746 2803 2438 2915 
Q 2131 3027 1741 3027 
Q 1325 3027 973 2918 
Q 621 2810 371 2688 
L 698 2042 
z
" transform="scale(0.015625)"/>
      <path id="Jost-Bold-6a" d="M 288 4051 
Q 288 3821 451 3673 
Q 614 3526 851 3526 
Q 1082 3526 1245 3673 
Q 1408 3821 1408 4051 
Q 1408 4282 1245 4426 
Q 1082 4570 851 4570 
Q 614 4570 451 4426 
Q 288 4282 288 4051 
z
M -211 -493 
L -602 -1203 
Q -525 -1274 -419 -1350 
Q -314 -1427 -157 -1478 
Q 0 -1530 211 -1530 
Q 582 -1530 828 -1395 
Q 1075 -1261 1200 -1021 
Q 1325 -781 1325 -461 
L 1325 2944 
L 390 2944 
L 390 -218 
Q 390 -371 358 -467 
Q 326 -563 256 -611 
Q 186 -659 83 -659 
Q -6 -659 -80 -614 
Q -154 -570 -211 -493 
z
" transform="scale(0.015625)"/>
      <path id="Jost-Bold-6f" d="M 205 1472 
Q 205 1011 422 665 
Q 640 320 1024 128 
Q 1408 -64 1888 -64 
Q 2368 -64 2749 128 
Q 3130 320 3350 665 
Q 3571 1011 3571 1472 
Q 3571 1939 3350 2284 
Q 3130 2630 2749 2822 
Q 2368 3014 1888 3014 
Q 1408 3014 1024 2822 
Q 640 2630 422 2284 
Q 205 1939 205 1472 
z
M 1197 1472 
Q 1197 1702 1293 1868 
Q 1389 2035 1542 2124 
Q 1696 2214 1888 2214 
Q 2074 2214 2230 2124 
Q 2387 2035 2480 1868 
Q 2573 1702 2573 1472 
Q 2573 1242 2480 1078 
Q 2387 915 2230 825 
Q 2074 736 1888 736 
Q 1696 736 1542 825 
Q 1389 915 1293 1078 
Q 1197 1242 1197 1472 
z
" transform="scale(0.015625)"/>
      <path id="Jost-Bold-72" d="M 1331 2944 
L 378 2944 
L 378 0 
L 1331 0 
L 1331 2944 
z
M 2182 1946 
L 2598 2771 
Q 2522 2886 2374 2950 
Q 2227 3014 2067 3014 
Q 1824 3014 1600 2854 
Q 1376 2694 1238 2419 
Q 1101 2144 1101 1792 
L 1331 1453 
Q 1331 1664 1388 1811 
Q 1446 1958 1555 2035 
Q 1664 2112 1805 2112 
Q 1933 2112 2019 2067 
Q 2106 2022 2182 1946 
z
" transform="scale(0.015625)"/>
      <path id="Jost-Bold-69" d="M 320 4051 
Q 320 3821 486 3673 
Q 653 3526 883 3526 
Q 1120 3526 1283 3673 
Q 1446 3821 1446 4051 
Q 1446 4282 1283 4426 
Q 1120 4570 883 4570 
Q 653 4570 486 4426 
Q 320 4282 320 4051 
z
M 416 2944 
L 416 0 
L 1350 0 
L 1350 2944 
L 416 2944 
z
" transform="scale(0.015625)"/>
      <path id="Jost-Bold-74" d="M 32 2944 
L 32 2144 
L 2003 2144 
L 2003 2944 
L 32 2944 
z
M 550 3968 
L 550 0 
L 1478 0 
L 1478 3968 
L 550 3968 
z
" transform="scale(0.015625)"/>
      <path id="Jost-Bold-79" d="M 3392 2944 
L 2400 2944 
L 1459 589 
L 1958 582 
L 1005 2944 
L -58 2944 
L 1216 237 
L 499 -1408 
L 1472 -1408 
L 3392 2944 
z
" transform="scale(0.015625)"/>
      <path id="Jost-Bold-3a" d="M 429 435 
Q 429 192 601 19 
Q 774 -154 1030 -154 
Q 1299 -154 1465 19 
Q 1632 192 1632 435 
Q 1632 678 1465 851 
Q 1299 1024 1030 1024 
Q 774 1024 601 851 
Q 429 678 429 435 
z
M 429 2829 
Q 429 2586 601 2410 
Q 774 2234 1030 2234 
Q 1299 2234 1465 2410 
Q 1632 2586 1632 2829 
Q 1632 3072 1465 3245 
Q 1299 3418 1030 3418 
Q 774 3418 601 3245 
Q 429 3072 429 2829 
z
" transform="scale(0.015625)"/>
      <path id="Jost-Bold-20" transform="scale(0.015625)"/>
      <path id="Jost-Bold-31" d="M 435 3187 
L 1542 3462 
L 1542 0 
L 2586 0 
L 2586 4563 
L 435 4128 
L 435 3187 
z
" transform="scale(0.015625)"/>
      <path id="Jost-Bold-30" d="M 1299 2240 
Q 1299 2554 1356 2813 
Q 1414 3072 1523 3254 
Q 1632 3437 1782 3536 
Q 1933 3635 2118 3635 
Q 2304 3635 2454 3536 
Q 2605 3437 2713 3254 
Q 2822 3072 2880 2813 
Q 2938 2554 2938 2240 
Q 2938 1926 2880 1667 
Q 2822 1408 2713 1225 
Q 2605 1043 2454 944 
Q 2304 845 2118 845 
Q 1933 845 1782 944 
Q 1632 1043 1523 1225 
Q 1414 1408 1356 1667 
Q 1299 1926 1299 2240 
z
M 256 2240 
Q 256 1510 489 992 
Q 723 474 1145 195 
Q 1568 -83 2118 -83 
Q 2694 -83 3110 195 
Q 3526 474 3753 992 
Q 3981 1510 3981 2240 
Q 3981 2970 3753 3488 
Q 3526 4006 3110 4284 
Q 2694 4563 2118 4563 
Q 1568 4563 1145 4284 
Q 723 4006 489 3488 
Q 256 2970 256 2240 
z
" transform="scale(0.015625)"/>
      <path id="Jost-Bold-36" d="M 1389 1574 
Q 1389 1798 1488 1971 
Q 1587 2144 1756 2240 
Q 1926 2336 2144 2336 
Q 2355 2336 2524 2240 
Q 2694 2144 2793 1971 
Q 2893 1798 2893 1574 
Q 2893 1344 2793 1174 
Q 2694 1005 2524 912 
Q 2355 819 2144 819 
Q 1926 819 1756 912 
Q 1587 1005 1488 1174 
Q 1389 1344 1389 1574 
z
M 2131 4461 
L 838 2816 
Q 621 2547 470 2240 
Q 320 1933 320 1574 
Q 320 1024 566 649 
Q 813 275 1225 86 
Q 1638 -102 2144 -102 
Q 2643 -102 3056 86 
Q 3469 275 3715 649 
Q 3962 1024 3962 1574 
Q 3962 1914 3843 2182 
Q 3725 2451 3523 2640 
Q 3322 2829 3075 2928 
Q 2829 3027 2579 3027 
Q 2336 3027 2173 2976 
Q 2010 2925 1830 2746 
L 2054 2842 
L 3501 4461 
L 2131 4461 
z
" transform="scale(0.015625)"/>
     </defs>
     <use xlink:href="#Jost-Bold-6d"/>
     <use xlink:href="#Jost-Bold-61" transform="translate(81.999985 0)"/>
     <use xlink:href="#Jost-Bold-6a" transform="translate(135.899979 0)"/>
     <use xlink:href="#Jost-Bold-6f" transform="translate(163.099976 0)"/>
     <use xlink:href="#Jost-Bold-72" transform="translate(222.09996 0)"/>
     <use xlink:href="#Jost-Bold-69" transform="translate(263.199951 0)"/>
     <use xlink:href="#Jost-Bold-74" transform="translate(290.799942 0)"/>
     <use xlink:href="#Jost-Bold-79" transform="translate(322.59993 0)"/>
     <use xlink:href="#Jost-Bold-3a" transform="translate(374.699921 0)"/>
     <use xlink:href="#Jost-Bold-20" transform="translate(406.899918 0)"/>
     <use xlink:href="#Jost-Bold-31" transform="translate(436.899902 0)"/>
     <use xlink:href="#Jost-Bold-30" transform="translate(487.799896 0)"/>
     <use xlink:href="#Jost-Bold-36" transform="translate(553.999893 0)"/>
    </g>
   </g>
   <g id="text_14">
    <!-- payout-dependent blocs: 146 (69 %) -->
    <g style="fill: #111111" transform="translate(9.216 46.5) scale(0.105 -0.105)">
     <defs>
      <path id="Jost-Medium-70" d="M 1114 -1408 
L 1114 2944 
L 416 2944 
L 416 -1408 
L 1114 -1408 
z
M 3552 1472 
Q 3552 1971 3353 2313 
Q 3155 2656 2828 2841 
Q 2502 3027 2118 3027 
Q 1747 3027 1468 2835 
Q 1190 2643 1036 2297 
Q 883 1952 883 1472 
Q 883 998 1036 649 
Q 1190 301 1468 112 
Q 1747 -77 2118 -77 
Q 2502 -77 2828 105 
Q 3155 288 3353 637 
Q 3552 986 3552 1472 
z
M 2835 1472 
Q 2835 1178 2713 973 
Q 2592 768 2393 659 
Q 2195 550 1952 550 
Q 1747 550 1555 656 
Q 1363 762 1238 966 
Q 1114 1171 1114 1472 
Q 1114 1773 1238 1977 
Q 1363 2182 1555 2288 
Q 1747 2394 1952 2394 
Q 2195 2394 2393 2288 
Q 2592 2182 2713 1974 
Q 2835 1766 2835 1472 
z
" transform="scale(0.015625)"/>
      <path id="Jost-Medium-61" d="M 877 915 
Q 877 1056 944 1152 
Q 1011 1248 1145 1302 
Q 1280 1357 1498 1357 
Q 1747 1357 1971 1293 
Q 2195 1229 2394 1088 
L 2394 1440 
Q 2336 1510 2195 1596 
Q 2054 1683 1840 1747 
Q 1626 1811 1331 1811 
Q 781 1811 480 1558 
Q 179 1306 179 877 
Q 179 576 320 365 
Q 461 154 697 45 
Q 934 -64 1210 -64 
Q 1466 -64 1712 29 
Q 1958 122 2121 314 
Q 2285 506 2285 787 
L 2182 1171 
Q 2182 947 2080 787 
Q 1978 627 1808 540 
Q 1638 454 1427 454 
Q 1267 454 1142 505 
Q 1018 557 947 662 
Q 877 768 877 915 
z
M 659 2176 
Q 730 2221 858 2288 
Q 986 2355 1168 2403 
Q 1350 2451 1555 2451 
Q 1690 2451 1805 2425 
Q 1920 2400 2006 2342 
Q 2093 2285 2137 2195 
Q 2182 2106 2182 1965 
L 2182 0 
L 2861 0 
L 2861 2099 
Q 2861 2394 2704 2598 
Q 2547 2803 2265 2908 
Q 1984 3014 1626 3014 
Q 1210 3014 896 2899 
Q 582 2784 378 2662 
L 659 2176 
z
" transform="scale(0.015625)"/>
      <path id="Jost-Medium-79" d="M 3046 2944 
L 2304 2944 
L 1382 634 
L 1709 614 
L 768 2944 
L -26 2944 
L 1165 346 
L 390 -1408 
L 1126 -1408 
L 3046 2944 
z
" transform="scale(0.015625)"/>
      <path id="Jost-Medium-6f" d="M 218 1472 
Q 218 1024 426 675 
Q 634 326 995 131 
Q 1357 -64 1805 -64 
Q 2259 -64 2617 131 
Q 2976 326 3184 675 
Q 3392 1024 3392 1472 
Q 3392 1926 3184 2272 
Q 2976 2618 2617 2813 
Q 2259 3008 1805 3008 
Q 1357 3008 995 2813 
Q 634 2618 426 2272 
Q 218 1926 218 1472 
z
M 928 1472 
Q 928 1747 1043 1958 
Q 1158 2170 1356 2285 
Q 1555 2400 1805 2400 
Q 2054 2400 2252 2285 
Q 2451 2170 2566 1958 
Q 2682 1747 2682 1472 
Q 2682 1197 2566 989 
Q 2451 781 2252 662 
Q 2054 544 1805 544 
Q 1555 544 1356 662 
Q 1158 781 1043 989 
Q 928 1197 928 1472 
z
" transform="scale(0.015625)"/>
      <path id="Jost-Medium-75" d="M 1152 1152 
L 1152 2944 
L 442 2944 
L 442 1075 
Q 442 550 707 243 
Q 973 -64 1466 -64 
Q 1773 -64 1993 67 
Q 2214 198 2355 454 
L 2355 0 
L 3046 0 
L 3046 2944 
L 2355 2944 
L 2355 1152 
Q 2355 954 2272 806 
Q 2189 659 2041 576 
Q 1894 493 1702 493 
Q 1421 493 1286 665 
Q 1152 838 1152 1152 
z
" transform="scale(0.015625)"/>
      <path id="Jost-Medium-74" d="M 32 2944 
L 32 2336 
L 1702 2336 
L 1702 2944 
L 32 2944 
z
M 531 3968 
L 531 0 
L 1210 0 
L 1210 3968 
L 531 3968 
z
" transform="scale(0.015625)"/>
      <path id="Jost-Medium-2d" d="M 32 1210 
L 1344 1210 
L 1344 1830 
L 32 1830 
L 32 1210 
z
" transform="scale(0.015625)"/>
      <path id="Jost-Medium-64" d="M 2656 4992 
L 2656 0 
L 3354 0 
L 3354 4992 
L 2656 4992 
z
M 218 1472 
Q 218 992 416 646 
Q 614 301 944 118 
Q 1274 -64 1651 -64 
Q 2022 -64 2300 121 
Q 2579 307 2742 652 
Q 2906 998 2906 1472 
Q 2906 1952 2742 2294 
Q 2579 2637 2300 2822 
Q 2022 3008 1651 3008 
Q 1274 3008 944 2825 
Q 614 2643 416 2300 
Q 218 1958 218 1472 
z
M 934 1472 
Q 934 1766 1056 1977 
Q 1178 2189 1379 2297 
Q 1581 2406 1818 2406 
Q 2022 2406 2214 2297 
Q 2406 2189 2531 1981 
Q 2656 1773 2656 1472 
Q 2656 1171 2531 963 
Q 2406 755 2214 646 
Q 2022 538 1818 538 
Q 1581 538 1379 646 
Q 1178 755 1056 966 
Q 934 1178 934 1472 
z
" transform="scale(0.015625)"/>
      <path id="Jost-Medium-65" d="M 1722 -64 
Q 2234 -64 2598 137 
Q 2963 339 3200 736 
L 2598 973 
Q 2464 736 2253 621 
Q 2042 506 1754 506 
Q 1485 506 1299 621 
Q 1114 736 1014 960 
Q 915 1184 922 1498 
Q 922 1818 1021 2035 
Q 1120 2253 1302 2368 
Q 1485 2483 1747 2483 
Q 1965 2483 2128 2387 
Q 2291 2291 2384 2118 
Q 2477 1946 2477 1709 
Q 2477 1664 2454 1600 
Q 2432 1536 2413 1498 
L 2624 1792 
L 634 1792 
L 634 1312 
L 3219 1312 
Q 3219 1338 3222 1395 
Q 3226 1453 3226 1504 
Q 3226 1978 3053 2314 
Q 2880 2650 2550 2829 
Q 2221 3008 1754 3008 
Q 1286 3008 940 2819 
Q 595 2630 406 2284 
Q 218 1939 218 1472 
Q 218 1011 403 665 
Q 589 320 931 128 
Q 1274 -64 1722 -64 
z
" transform="scale(0.015625)"/>
      <path id="Jost-Medium-6e" d="M 2336 1792 
L 2336 0 
L 3046 0 
L 3046 1875 
Q 3046 2400 2784 2704 
Q 2522 3008 2022 3008 
Q 1722 3008 1501 2880 
Q 1280 2752 1139 2490 
L 1139 2944 
L 442 2944 
L 442 0 
L 1139 0 
L 1139 1792 
Q 1139 1990 1219 2140 
Q 1299 2291 1446 2371 
Q 1594 2451 1792 2451 
Q 2067 2451 2201 2284 
Q 2336 2118 2336 1792 
z
" transform="scale(0.015625)"/>
      <path id="Jost-Medium-20" transform="scale(0.015625)"/>
      <path id="Jost-Medium-62" d="M 1114 4992 
L 416 4992 
L 416 0 
L 1114 0 
L 1114 4992 
z
M 3552 1472 
Q 3552 1958 3353 2300 
Q 3155 2643 2828 2825 
Q 2502 3008 2118 3008 
Q 1754 3008 1472 2822 
Q 1190 2637 1027 2294 
Q 864 1952 864 1472 
Q 864 998 1027 652 
Q 1190 307 1472 121 
Q 1754 -64 2118 -64 
Q 2502 -64 2828 118 
Q 3155 301 3353 646 
Q 3552 992 3552 1472 
z
M 2835 1472 
Q 2835 1178 2713 966 
Q 2592 755 2393 646 
Q 2195 538 1952 538 
Q 1747 538 1555 646 
Q 1363 755 1238 963 
Q 1114 1171 1114 1472 
Q 1114 1773 1238 1981 
Q 1363 2189 1555 2297 
Q 1747 2406 1952 2406 
Q 2195 2406 2393 2297 
Q 2592 2189 2713 1977 
Q 2835 1766 2835 1472 
z
" transform="scale(0.015625)"/>
      <path id="Jost-Medium-6c" d="M 442 4992 
L 442 0 
L 1139 0 
L 1139 4992 
L 442 4992 
z
" transform="scale(0.015625)"/>
      <path id="Jost-Medium-63" d="M 902 1472 
Q 902 1747 1024 1958 
Q 1146 2170 1354 2291 
Q 1562 2413 1818 2413 
Q 2022 2413 2214 2349 
Q 2406 2285 2556 2173 
Q 2707 2061 2778 1914 
L 2778 2682 
Q 2624 2829 2361 2918 
Q 2099 3008 1786 3008 
Q 1338 3008 976 2813 
Q 614 2618 403 2272 
Q 192 1926 192 1472 
Q 192 1024 403 675 
Q 614 326 976 131 
Q 1338 -64 1786 -64 
Q 2099 -64 2361 25 
Q 2624 115 2778 269 
L 2778 1030 
Q 2707 890 2560 778 
Q 2413 666 2224 598 
Q 2035 531 1818 531 
Q 1562 531 1354 652 
Q 1146 774 1024 985 
Q 902 1197 902 1472 
z
" transform="scale(0.015625)"/>
      <path id="Jost-Medium-73" d="M 576 973 
L 173 563 
Q 301 397 493 246 
Q 685 96 934 3 
Q 1184 -90 1491 -90 
Q 1971 -90 2256 163 
Q 2541 416 2541 832 
Q 2541 1101 2419 1267 
Q 2298 1434 2093 1549 
Q 1888 1664 1638 1760 
Q 1459 1830 1315 1894 
Q 1171 1958 1084 2038 
Q 998 2118 998 2221 
Q 998 2342 1094 2406 
Q 1190 2470 1344 2470 
Q 1562 2470 1766 2361 
Q 1971 2253 2112 2080 
L 2496 2490 
Q 2374 2637 2201 2752 
Q 2029 2867 1814 2937 
Q 1600 3008 1357 3008 
Q 1088 3008 854 2921 
Q 621 2835 483 2656 
Q 346 2477 346 2208 
Q 346 1946 470 1773 
Q 595 1600 790 1494 
Q 986 1389 1184 1312 
Q 1382 1242 1529 1174 
Q 1677 1107 1760 1014 
Q 1843 922 1843 794 
Q 1843 646 1737 563 
Q 1632 480 1446 480 
Q 1299 480 1152 537 
Q 1005 595 864 704 
Q 723 813 576 973 
z
" transform="scale(0.015625)"/>
      <path id="Jost-Medium-3a" d="M 538 326 
Q 538 147 669 12 
Q 800 -122 992 -122 
Q 1184 -122 1312 12 
Q 1440 147 1440 326 
Q 1440 512 1312 643 
Q 1184 774 992 774 
Q 800 774 669 643 
Q 538 512 538 326 
z
M 538 2746 
Q 538 2566 669 2432 
Q 800 2298 992 2298 
Q 1184 2298 1312 2432 
Q 1440 2566 1440 2746 
Q 1440 2931 1312 3062 
Q 1184 3194 992 3194 
Q 800 3194 669 3062 
Q 538 2931 538 2746 
z
" transform="scale(0.015625)"/>
      <path id="Jost-Medium-28" d="M 1274 4992 
Q 890 4275 704 3475 
Q 518 2675 518 1856 
Q 518 1043 704 243 
Q 890 -557 1274 -1280 
L 1914 -1280 
Q 1581 -557 1414 243 
Q 1248 1043 1248 1856 
Q 1248 2675 1414 3475 
Q 1581 4275 1914 4992 
L 1274 4992 
z
" transform="scale(0.015625)"/>
      <path id="Jost-Medium-39" d="M 2867 2970 
Q 2867 2694 2748 2483 
Q 2630 2272 2425 2150 
Q 2221 2029 1965 2029 
Q 1709 2029 1504 2150 
Q 1299 2272 1180 2483 
Q 1062 2694 1062 2970 
Q 1062 3245 1180 3453 
Q 1299 3661 1504 3779 
Q 1709 3898 1965 3898 
Q 2221 3898 2425 3779 
Q 2630 3661 2748 3453 
Q 2867 3245 2867 2970 
z
M 1805 6 
L 3232 1914 
Q 3392 2131 3501 2393 
Q 3610 2656 3610 2970 
Q 3610 3469 3389 3824 
Q 3168 4179 2797 4371 
Q 2426 4563 1965 4563 
Q 1504 4563 1133 4371 
Q 762 4179 541 3824 
Q 320 3469 320 2970 
Q 320 2650 429 2381 
Q 538 2112 730 1917 
Q 922 1722 1162 1619 
Q 1402 1517 1670 1517 
Q 1894 1517 2064 1568 
Q 2234 1619 2381 1786 
L 2266 1766 
L 845 6 
L 1805 6 
z
" transform="scale(0.015625)"/>
      <path id="Jost-Medium-25" d="M 192 3482 
Q 192 3181 329 2934 
Q 467 2688 716 2541 
Q 966 2394 1280 2394 
Q 1606 2394 1852 2541 
Q 2099 2688 2236 2934 
Q 2374 3181 2374 3482 
Q 2374 3782 2236 4028 
Q 2099 4275 1852 4422 
Q 1606 4570 1280 4570 
Q 966 4570 716 4422 
Q 467 4275 329 4028 
Q 192 3782 192 3482 
z
M 787 3482 
Q 787 3629 848 3750 
Q 909 3872 1021 3942 
Q 1133 4013 1280 4013 
Q 1440 4013 1549 3942 
Q 1658 3872 1722 3750 
Q 1786 3629 1786 3482 
Q 1786 3341 1722 3216 
Q 1658 3091 1549 3017 
Q 1440 2944 1280 2944 
Q 1133 2944 1021 3017 
Q 909 3091 848 3216 
Q 787 3341 787 3482 
z
M 2867 1005 
Q 2867 704 3004 454 
Q 3142 205 3392 61 
Q 3642 -83 3955 -83 
Q 4282 -83 4525 61 
Q 4768 205 4909 454 
Q 5050 704 5050 1005 
Q 5050 1306 4909 1552 
Q 4768 1798 4525 1945 
Q 4282 2093 3955 2093 
Q 3642 2093 3392 1945 
Q 3142 1798 3004 1552 
Q 2867 1306 2867 1005 
z
M 3456 1005 
Q 3456 1152 3517 1270 
Q 3578 1389 3690 1462 
Q 3802 1536 3955 1536 
Q 4115 1536 4224 1462 
Q 4333 1389 4393 1267 
Q 4454 1146 4454 1005 
Q 4454 864 4393 739 
Q 4333 614 4224 540 
Q 4115 467 3955 467 
Q 3802 467 3690 540 
Q 3578 614 3517 739 
Q 3456 864 3456 1005 
z
M 3827 4480 
L 723 0 
L 1414 0 
L 4518 4480 
L 3827 4480 
z
" transform="scale(0.015625)"/>
      <path id="Jost-Medium-29" d="M 794 -1280 
Q 1178 -557 1360 243 
Q 1542 1043 1542 1856 
Q 1542 2675 1360 3475 
Q 1178 4275 794 4992 
L 154 4992 
Q 493 4275 656 3475 
Q 819 2675 819 1856 
Q 819 1043 656 243 
Q 493 -557 154 -1280 
L 794 -1280 
z
" transform="scale(0.015625)"/>
     </defs>
     <use xlink:href="#Jost-Medium-70"/>
     <use xlink:href="#Jost-Medium-61" transform="translate(58.899994 0)"/>
     <use xlink:href="#Jost-Medium-79" transform="translate(109.299988 0)"/>
     <use xlink:href="#Jost-Medium-6f" transform="translate(156.599976 0)"/>
     <use xlink:href="#Jost-Medium-75" transform="translate(212.999969 0)"/>
     <use xlink:href="#Jost-Medium-74" transform="translate(267.499954 0)"/>
     <use xlink:href="#Jost-Medium-2d" transform="translate(294.599945 0)"/>
     <use xlink:href="#Jost-Medium-64" transform="translate(316.09993 0)"/>
     <use xlink:href="#Jost-Medium-65" transform="translate(374.999924 0)"/>
     <use xlink:href="#Jost-Medium-70" transform="translate(428.899918 0)"/>
     <use xlink:href="#Jost-Medium-65" transform="translate(487.799911 0)"/>
     <use xlink:href="#Jost-Medium-6e" transform="translate(541.699905 0)"/>
     <use xlink:href="#Jost-Medium-64" transform="translate(596.19989 0)"/>
     <use xlink:href="#Jost-Medium-65" transform="translate(655.099884 0)"/>
     <use xlink:href="#Jost-Medium-6e" transform="translate(708.999878 0)"/>
     <use xlink:href="#Jost-Medium-74" transform="translate(763.499863 0)"/>
     <use xlink:href="#Jost-Medium-20" transform="translate(790.599854 0)"/>
     <use xlink:href="#Jost-Medium-62" transform="translate(820.599838 0)"/>
     <use xlink:href="#Jost-Medium-6c" transform="translate(879.499832 0)"/>
     <use xlink:href="#Jost-Medium-6f" transform="translate(904.099823 0)"/>
     <use xlink:href="#Jost-Medium-63" transform="translate(960.499817 0)"/>
     <use xlink:href="#Jost-Medium-73" transform="translate(1008.899811 0)"/>
     <use xlink:href="#Jost-Medium-3a" transform="translate(1051.299805 0)"/>
     <use xlink:href="#Jost-Medium-20" transform="translate(1082.199799 0)"/>
     <use xlink:href="#Jost-Medium-31" transform="translate(1112.199783 0)"/>
     <use xlink:href="#Jost-Medium-34" transform="translate(1159.599777 0)"/>
     <use xlink:href="#Jost-Medium-36" transform="translate(1222.499771 0)"/>
     <use xlink:href="#Jost-Medium-20" transform="translate(1283.899765 0)"/>
     <use xlink:href="#Jost-Medium-28" transform="translate(1313.89975 0)"/>
     <use xlink:href="#Jost-Medium-36" transform="translate(1346.199738 0)"/>
     <use xlink:href="#Jost-Medium-39" transform="translate(1407.599731 0)"/>
     <use xlink:href="#Jost-Medium-20" transform="translate(1468.999725 0)"/>
     <use xlink:href="#Jost-Medium-25" transform="translate(1498.99971 0)"/>
     <use xlink:href="#Jost-Medium-29" transform="translate(1580.899704 0)"/>
    </g>
   </g>
   <g id="text_15">
    <!-- value-creating blocs: 65 (31 %) -->
    <g style="fill: #5c5c5c" transform="translate(314.595094 46.5) scale(0.105 -0.105)">
     <defs>
      <path id="Jost-Regular-76" d="M 0 2944 
L 1408 -224 
L 2816 2944 
L 2240 2944 
L 1408 864 
L 576 2944 
L 0 2944 
z
" transform="scale(0.015625)"/>
      <path id="Jost-Regular-61" d="M 710 909 
Q 710 1069 787 1184 
Q 864 1299 1021 1363 
Q 1178 1427 1427 1427 
Q 1696 1427 1933 1360 
Q 2170 1293 2394 1139 
L 2394 1440 
Q 2349 1498 2221 1590 
Q 2093 1683 1878 1756 
Q 1664 1830 1344 1830 
Q 800 1830 496 1571 
Q 192 1312 192 883 
Q 192 582 333 371 
Q 474 160 707 48 
Q 941 -64 1210 -64 
Q 1453 -64 1699 25 
Q 1946 115 2115 300 
Q 2285 486 2285 768 
L 2182 1152 
Q 2182 922 2070 746 
Q 1958 570 1769 474 
Q 1581 378 1344 378 
Q 1158 378 1014 438 
Q 870 499 790 620 
Q 710 742 710 909 
z
M 634 2266 
Q 704 2317 825 2387 
Q 947 2458 1123 2509 
Q 1299 2560 1517 2560 
Q 1651 2560 1772 2534 
Q 1894 2509 1987 2451 
Q 2080 2394 2131 2294 
Q 2182 2195 2182 2042 
L 2182 0 
L 2694 0 
L 2694 2112 
Q 2694 2400 2550 2598 
Q 2406 2797 2147 2902 
Q 1888 3008 1542 3008 
Q 1133 3008 841 2886 
Q 550 2765 384 2643 
L 634 2266 
z
" transform="scale(0.015625)"/>
      <path id="Jost-Regular-6c" d="M 480 4992 
L 480 0 
L 992 0 
L 992 4992 
L 480 4992 
z
" transform="scale(0.015625)"/>
      <path id="Jost-Regular-75" d="M 992 1152 
L 992 2944 
L 480 2944 
L 480 1088 
Q 480 563 755 249 
Q 1030 -64 1491 -64 
Q 1786 -64 2003 67 
Q 2221 198 2368 461 
L 2368 0 
L 2880 0 
L 2880 2944 
L 2368 2944 
L 2368 1152 
Q 2368 934 2275 768 
Q 2182 602 2012 509 
Q 1843 416 1619 416 
Q 1312 416 1152 608 
Q 992 800 992 1152 
z
" transform="scale(0.015625)"/>
      <path id="Jost-Regular-65" d="M 1619 -64 
Q 2093 -64 2441 125 
Q 2790 314 3021 685 
L 2605 947 
Q 2445 678 2214 547 
Q 1984 416 1683 416 
Q 1382 416 1171 544 
Q 960 672 851 915 
Q 742 1158 742 1504 
Q 749 1843 861 2076 
Q 973 2310 1181 2435 
Q 1389 2560 1683 2560 
Q 1933 2560 2118 2451 
Q 2304 2342 2409 2150 
Q 2515 1958 2515 1696 
Q 2515 1651 2496 1584 
Q 2477 1517 2458 1485 
L 2662 1779 
L 550 1779 
L 550 1344 
L 3066 1344 
Q 3066 1357 3069 1405 
Q 3072 1453 3072 1498 
Q 3072 1965 2905 2304 
Q 2739 2643 2428 2825 
Q 2118 3008 1683 3008 
Q 1248 3008 918 2816 
Q 589 2624 406 2278 
Q 224 1933 224 1472 
Q 224 1018 400 672 
Q 576 326 893 131 
Q 1210 -64 1619 -64 
z
" transform="scale(0.015625)"/>
      <path id="Jost-Regular-2d" d="M 32 1280 
L 1312 1280 
L 1312 1760 
L 32 1760 
L 32 1280 
z
" transform="scale(0.015625)"/>
      <path id="Jost-Regular-63" d="M 710 1472 
Q 710 1779 841 2019 
Q 973 2259 1200 2393 
Q 1427 2528 1715 2528 
Q 1952 2528 2160 2454 
Q 2368 2381 2521 2259 
Q 2675 2138 2739 1990 
L 2739 2630 
Q 2586 2810 2301 2909 
Q 2016 3008 1715 3008 
Q 1286 3008 940 2809 
Q 595 2611 393 2265 
Q 192 1920 192 1472 
Q 192 1030 393 681 
Q 595 333 940 134 
Q 1286 -64 1715 -64 
Q 2016 -64 2301 35 
Q 2586 134 2739 314 
L 2739 954 
Q 2675 813 2521 688 
Q 2368 563 2160 489 
Q 1952 416 1715 416 
Q 1427 416 1200 553 
Q 973 691 841 928 
Q 710 1165 710 1472 
z
" transform="scale(0.015625)"/>
      <path id="Jost-Regular-72" d="M 992 2944 
L 480 2944 
L 480 0 
L 992 0 
L 992 2944 
z
M 1882 2381 
L 2163 2803 
Q 2048 2925 1910 2966 
Q 1773 3008 1613 3008 
Q 1408 3008 1209 2848 
Q 1011 2688 886 2416 
Q 762 2144 762 1792 
L 992 1792 
Q 992 2003 1033 2169 
Q 1075 2336 1184 2432 
Q 1293 2528 1485 2528 
Q 1613 2528 1696 2493 
Q 1779 2458 1882 2381 
z
" transform="scale(0.015625)"/>
      <path id="Jost-Regular-74" d="M 32 2944 
L 32 2464 
L 1504 2464 
L 1504 2944 
L 32 2944 
z
M 512 3968 
L 512 0 
L 1024 0 
L 1024 3968 
L 512 3968 
z
" transform="scale(0.015625)"/>
      <path id="Jost-Regular-69" d="M 480 4160 
Q 480 4019 585 3913 
Q 691 3808 832 3808 
Q 979 3808 1081 3913 
Q 1184 4019 1184 4160 
Q 1184 4307 1081 4409 
Q 979 4512 832 4512 
Q 691 4512 585 4409 
Q 480 4307 480 4160 
z
M 576 2944 
L 576 0 
L 1088 0 
L 1088 2944 
L 576 2944 
z
" transform="scale(0.015625)"/>
      <path id="Jost-Regular-6e" d="M 2368 1792 
L 2368 0 
L 2880 0 
L 2880 1856 
Q 2880 2387 2608 2697 
Q 2336 3008 1869 3008 
Q 1581 3008 1360 2880 
Q 1139 2752 992 2483 
L 992 2944 
L 480 2944 
L 480 0 
L 992 0 
L 992 1792 
Q 992 2010 1085 2176 
Q 1178 2342 1347 2435 
Q 1517 2528 1741 2528 
Q 2048 2528 2208 2342 
Q 2368 2157 2368 1792 
z
" transform="scale(0.015625)"/>
      <path id="Jost-Regular-67" d="M 282 -192 
Q 282 -570 467 -861 
Q 653 -1152 982 -1312 
Q 1312 -1472 1741 -1472 
Q 2112 -1472 2445 -1299 
Q 2778 -1126 2989 -784 
Q 3200 -442 3200 64 
L 3200 2944 
L 2688 2944 
L 2688 64 
Q 2688 -307 2544 -540 
Q 2400 -774 2182 -883 
Q 1965 -992 1741 -992 
Q 1453 -992 1241 -880 
Q 1030 -768 915 -585 
Q 800 -403 800 -192 
L 282 -192 
z
M 224 1472 
Q 224 998 422 652 
Q 621 307 953 121 
Q 1286 -64 1683 -64 
Q 2054 -64 2329 121 
Q 2605 307 2761 652 
Q 2918 998 2918 1472 
Q 2918 1952 2761 2294 
Q 2605 2637 2329 2822 
Q 2054 3008 1683 3008 
Q 1286 3008 953 2822 
Q 621 2637 422 2294 
Q 224 1952 224 1472 
z
M 742 1472 
Q 742 1811 880 2048 
Q 1018 2285 1248 2406 
Q 1478 2528 1747 2528 
Q 1914 2528 2080 2457 
Q 2246 2387 2384 2252 
Q 2522 2118 2605 1923 
Q 2688 1728 2688 1472 
Q 2688 1133 2547 896 
Q 2406 659 2188 537 
Q 1971 416 1747 416 
Q 1478 416 1248 537 
Q 1018 659 880 896 
Q 742 1133 742 1472 
z
" transform="scale(0.015625)"/>
      <path id="Jost-Regular-20" transform="scale(0.015625)"/>
      <path id="Jost-Regular-62" d="M 960 4992 
L 448 4992 
L 448 0 
L 960 0 
L 960 4992 
z
M 3424 1472 
Q 3424 1952 3225 2294 
Q 3027 2637 2697 2822 
Q 2368 3008 1965 3008 
Q 1600 3008 1321 2822 
Q 1043 2637 886 2294 
Q 730 1952 730 1472 
Q 730 998 886 652 
Q 1043 307 1321 121 
Q 1600 -64 1965 -64 
Q 2368 -64 2697 121 
Q 3027 307 3225 652 
Q 3424 998 3424 1472 
z
M 2906 1472 
Q 2906 1133 2768 896 
Q 2630 659 2403 537 
Q 2176 416 1901 416 
Q 1677 416 1459 537 
Q 1242 659 1101 896 
Q 960 1133 960 1472 
Q 960 1811 1101 2048 
Q 1242 2285 1459 2406 
Q 1677 2528 1901 2528 
Q 2176 2528 2403 2406 
Q 2630 2285 2768 2048 
Q 2906 1811 2906 1472 
z
" transform="scale(0.015625)"/>
      <path id="Jost-Regular-6f" d="M 224 1472 
Q 224 1030 425 681 
Q 627 333 972 134 
Q 1318 -64 1747 -64 
Q 2182 -64 2524 134 
Q 2867 333 3068 681 
Q 3270 1030 3270 1472 
Q 3270 1920 3068 2265 
Q 2867 2611 2524 2809 
Q 2182 3008 1747 3008 
Q 1318 3008 972 2809 
Q 627 2611 425 2265 
Q 224 1920 224 1472 
z
M 742 1472 
Q 742 1779 873 2019 
Q 1005 2259 1232 2393 
Q 1459 2528 1747 2528 
Q 2035 2528 2262 2393 
Q 2490 2259 2621 2019 
Q 2752 1779 2752 1472 
Q 2752 1165 2621 928 
Q 2490 691 2262 553 
Q 2035 416 1747 416 
Q 1459 416 1232 553 
Q 1005 691 873 928 
Q 742 1165 742 1472 
z
" transform="scale(0.015625)"/>
      <path id="Jost-Regular-73" d="M 602 902 
L 198 653 
Q 282 480 445 313 
Q 608 147 845 41 
Q 1082 -64 1376 -64 
Q 1830 -64 2108 192 
Q 2387 448 2387 832 
Q 2387 1094 2262 1260 
Q 2138 1427 1926 1545 
Q 1715 1664 1459 1766 
Q 1306 1830 1165 1900 
Q 1024 1971 934 2060 
Q 845 2150 845 2266 
Q 845 2413 960 2483 
Q 1075 2554 1235 2554 
Q 1466 2554 1648 2445 
Q 1830 2336 1952 2170 
L 2362 2432 
Q 2272 2598 2112 2726 
Q 1952 2854 1744 2931 
Q 1536 3008 1299 3008 
Q 1062 3008 841 2925 
Q 621 2842 483 2669 
Q 346 2496 346 2234 
Q 346 1978 477 1808 
Q 608 1638 803 1532 
Q 998 1427 1190 1350 
Q 1363 1286 1516 1212 
Q 1670 1139 1769 1033 
Q 1869 928 1869 774 
Q 1869 602 1744 502 
Q 1619 403 1402 403 
Q 1222 403 1072 470 
Q 922 538 806 653 
Q 691 768 602 902 
z
" transform="scale(0.015625)"/>
      <path id="Jost-Regular-3a" d="M 608 256 
Q 608 115 713 9 
Q 819 -96 960 -96 
Q 1107 -96 1209 9 
Q 1312 115 1312 256 
Q 1312 403 1209 505 
Q 1107 608 960 608 
Q 819 608 713 505 
Q 608 403 608 256 
z
M 608 2688 
Q 608 2547 713 2441 
Q 819 2336 960 2336 
Q 1107 2336 1209 2441 
Q 1312 2547 1312 2688 
Q 1312 2835 1209 2937 
Q 1107 3040 960 3040 
Q 819 3040 713 2937 
Q 608 2835 608 2688 
z
" transform="scale(0.015625)"/>
      <path id="Jost-Regular-36" d="M 838 1472 
Q 838 1779 969 2019 
Q 1101 2259 1328 2393 
Q 1555 2528 1843 2528 
Q 2131 2528 2358 2393 
Q 2586 2259 2717 2019 
Q 2848 1779 2848 1472 
Q 2848 1165 2717 931 
Q 2586 698 2358 563 
Q 2131 429 1843 429 
Q 1555 429 1328 563 
Q 1101 698 969 931 
Q 838 1165 838 1472 
z
M 2112 4480 
L 602 2400 
Q 474 2221 397 1984 
Q 320 1747 320 1472 
Q 320 1011 521 665 
Q 723 320 1068 128 
Q 1414 -64 1843 -64 
Q 2278 -64 2620 128 
Q 2963 320 3164 665 
Q 3366 1011 3366 1472 
Q 3366 1779 3264 2044 
Q 3162 2310 2979 2508 
Q 2797 2707 2557 2816 
Q 2317 2925 2042 2925 
Q 1824 2925 1654 2873 
Q 1485 2822 1357 2662 
L 1395 2630 
L 2797 4480 
L 2112 4480 
z
" transform="scale(0.015625)"/>
      <path id="Jost-Regular-35" d="M 3354 1472 
Q 3354 1920 3181 2259 
Q 3008 2598 2704 2790 
Q 2400 2982 2016 2982 
Q 1850 2982 1680 2940 
Q 1510 2899 1350 2816 
L 1651 4000 
L 3341 4000 
L 3341 4480 
L 1229 4480 
L 640 2093 
Q 870 2253 1046 2339 
Q 1222 2426 1398 2461 
Q 1574 2496 1786 2496 
Q 2074 2496 2301 2368 
Q 2528 2240 2659 2009 
Q 2790 1779 2790 1472 
Q 2790 1165 2672 934 
Q 2554 704 2330 576 
Q 2106 448 1786 448 
Q 1542 448 1318 553 
Q 1094 659 924 828 
Q 755 998 653 1190 
L 192 877 
Q 339 621 553 406 
Q 768 192 1072 64 
Q 1376 -64 1786 -64 
Q 2112 -64 2393 32 
Q 2675 128 2892 320 
Q 3110 512 3232 800 
Q 3354 1088 3354 1472 
z
" transform="scale(0.015625)"/>
      <path id="Jost-Regular-28" d="M 1312 4992 
Q 928 4275 752 3475 
Q 576 2675 576 1856 
Q 576 1043 752 243 
Q 928 -557 1312 -1280 
L 1792 -1280 
Q 1459 -557 1305 243 
Q 1152 1043 1152 1856 
Q 1152 2675 1305 3475 
Q 1459 4275 1792 4992 
L 1312 4992 
z
" transform="scale(0.015625)"/>
      <path id="Jost-Regular-33" d="M 1619 2208 
Q 2054 2208 2380 2361 
Q 2707 2515 2892 2777 
Q 3078 3040 3078 3354 
Q 3078 3674 2928 3942 
Q 2778 4211 2499 4377 
Q 2221 4544 1837 4544 
Q 1472 4544 1187 4393 
Q 902 4243 739 3980 
Q 576 3718 576 3366 
L 1094 3366 
Q 1094 3661 1312 3856 
Q 1530 4051 1843 4051 
Q 2067 4051 2217 3961 
Q 2368 3872 2445 3709 
Q 2522 3546 2522 3334 
Q 2522 3174 2461 3033 
Q 2400 2893 2285 2787 
Q 2170 2682 2003 2621 
Q 1837 2560 1619 2560 
L 1619 2208 
z
M 1811 -64 
Q 2214 -64 2528 89 
Q 2842 243 3024 524 
Q 3206 806 3206 1184 
Q 3206 1517 3081 1753 
Q 2957 1990 2736 2140 
Q 2515 2291 2230 2361 
Q 1946 2432 1619 2432 
L 1619 2080 
Q 1837 2080 2022 2029 
Q 2208 1978 2349 1872 
Q 2490 1766 2570 1609 
Q 2650 1453 2650 1248 
Q 2650 1005 2547 825 
Q 2445 646 2256 547 
Q 2067 448 1811 448 
Q 1555 448 1356 544 
Q 1158 640 1046 806 
Q 934 973 934 1184 
L 384 1184 
Q 384 922 486 694 
Q 589 467 774 297 
Q 960 128 1222 32 
Q 1485 -64 1811 -64 
z
" transform="scale(0.015625)"/>
      <path id="Jost-Regular-31" d="M 512 3597 
L 1504 3891 
L 1504 0 
L 2048 0 
L 2048 4544 
L 512 4160 
L 512 3597 
z
" transform="scale(0.015625)"/>
      <path id="Jost-Regular-25" d="M 224 3520 
Q 224 3238 349 3004 
Q 474 2771 704 2633 
Q 934 2496 1235 2496 
Q 1542 2496 1769 2633 
Q 1997 2771 2121 3004 
Q 2246 3238 2246 3520 
Q 2246 3808 2121 4038 
Q 1997 4269 1769 4406 
Q 1542 4544 1235 4544 
Q 934 4544 704 4406 
Q 474 4269 349 4038 
Q 224 3808 224 3520 
z
M 678 3520 
Q 678 3686 745 3824 
Q 813 3962 937 4045 
Q 1062 4128 1235 4128 
Q 1414 4128 1536 4045 
Q 1658 3962 1725 3824 
Q 1792 3686 1792 3520 
Q 1792 3360 1725 3219 
Q 1658 3078 1536 2995 
Q 1414 2912 1235 2912 
Q 1062 2912 937 2995 
Q 813 3078 745 3219 
Q 678 3360 678 3520 
z
M 2560 960 
Q 2560 678 2685 444 
Q 2810 211 3040 73 
Q 3270 -64 3571 -64 
Q 3878 -64 4105 73 
Q 4333 211 4457 444 
Q 4582 678 4582 960 
Q 4582 1248 4457 1478 
Q 4333 1709 4105 1846 
Q 3878 1984 3571 1984 
Q 3270 1984 3040 1846 
Q 2810 1709 2685 1478 
Q 2560 1248 2560 960 
z
M 3014 960 
Q 3014 1126 3081 1264 
Q 3149 1402 3273 1485 
Q 3398 1568 3571 1568 
Q 3750 1568 3872 1485 
Q 3994 1402 4061 1264 
Q 4128 1126 4128 960 
Q 4128 800 4061 659 
Q 3994 518 3872 435 
Q 3750 352 3571 352 
Q 3398 352 3273 435 
Q 3149 518 3081 659 
Q 3014 800 3014 960 
z
M 3603 4480 
L 723 0 
L 1203 0 
L 4083 4480 
L 3603 4480 
z
" transform="scale(0.015625)"/>
      <path id="Jost-Regular-29" d="M 672 -1280 
Q 1056 -557 1232 243 
Q 1408 1043 1408 1856 
Q 1408 2675 1232 3475 
Q 1056 4275 672 4992 
L 192 4992 
Q 531 4275 681 3475 
Q 832 2675 832 1856 
Q 832 1043 681 243 
Q 531 -557 192 -1280 
L 672 -1280 
z
" transform="scale(0.015625)"/>
     </defs>
     <use xlink:href="#Jost-Regular-76"/>
     <use xlink:href="#Jost-Regular-61" transform="translate(43.999985 0)"/>
     <use xlink:href="#Jost-Regular-6c" transform="translate(92.099976 0)"/>
     <use xlink:href="#Jost-Regular-75" transform="translate(115.09996 0)"/>
     <use xlink:href="#Jost-Regular-65" transform="translate(167.599945 0)"/>
     <use xlink:href="#Jost-Regular-2d" transform="translate(219.09993 0)"/>
     <use xlink:href="#Jost-Regular-63" transform="translate(240.099915 0)"/>
     <use xlink:href="#Jost-Regular-72" transform="translate(287.899902 0)"/>
     <use xlink:href="#Jost-Regular-65" transform="translate(322.19989 0)"/>
     <use xlink:href="#Jost-Regular-61" transform="translate(373.699875 0)"/>
     <use xlink:href="#Jost-Regular-74" transform="translate(421.799866 0)"/>
     <use xlink:href="#Jost-Regular-69" transform="translate(445.79985 0)"/>
     <use xlink:href="#Jost-Regular-6e" transform="translate(471.799835 0)"/>
     <use xlink:href="#Jost-Regular-67" transform="translate(524.29982 0)"/>
     <use xlink:href="#Jost-Regular-20" transform="translate(581.299805 0)"/>
     <use xlink:href="#Jost-Regular-62" transform="translate(611.299789 0)"/>
     <use xlink:href="#Jost-Regular-6c" transform="translate(668.299774 0)"/>
     <use xlink:href="#Jost-Regular-6f" transform="translate(691.299759 0)"/>
     <use xlink:href="#Jost-Regular-63" transform="translate(745.89975 0)"/>
     <use xlink:href="#Jost-Regular-73" transform="translate(793.699738 0)"/>
     <use xlink:href="#Jost-Regular-3a" transform="translate(833.999725 0)"/>
     <use xlink:href="#Jost-Regular-20" transform="translate(863.99971 0)"/>
     <use xlink:href="#Jost-Regular-36" transform="translate(893.999695 0)"/>
     <use xlink:href="#Jost-Regular-35" transform="translate(951.599686 0)"/>
     <use xlink:href="#Jost-Regular-20" transform="translate(1007.99968 0)"/>
     <use xlink:href="#Jost-Regular-28" transform="translate(1037.999664 0)"/>
     <use xlink:href="#Jost-Regular-33" transform="translate(1068.999649 0)"/>
     <use xlink:href="#Jost-Regular-31" transform="translate(1123.59964 0)"/>
     <use xlink:href="#Jost-Regular-20" transform="translate(1168.599625 0)"/>
     <use xlink:href="#Jost-Regular-25" transform="translate(1198.599609 0)"/>
     <use xlink:href="#Jost-Regular-29" transform="translate(1273.6996 0)"/>
    </g>
   </g>
   <g id="text_16">
    <!-- the 211 congress votes · one federation, one vote -->
    <g style="fill: #5c5c5c" transform="translate(9.216 141) scale(0.1 -0.1)">
     <defs>
      <path id="Jost-Regular-68" d="M 992 4992 
L 480 4992 
L 480 0 
L 992 0 
L 992 4992 
z
M 2368 1792 
L 2368 0 
L 2880 0 
L 2880 1856 
Q 2880 2240 2755 2496 
Q 2630 2752 2403 2880 
Q 2176 3008 1869 3008 
Q 1562 3008 1328 2848 
Q 1094 2688 960 2416 
Q 826 2144 826 1792 
L 992 1792 
Q 992 2003 1085 2169 
Q 1178 2336 1347 2432 
Q 1517 2528 1741 2528 
Q 2054 2528 2211 2342 
Q 2368 2157 2368 1792 
z
" transform="scale(0.015625)"/>
      <path id="Jost-Regular-32" d="M 128 0 
L 3290 0 
L 3290 512 
L 1248 512 
L 2675 1965 
Q 2938 2234 3104 2573 
Q 3270 2912 3270 3258 
Q 3270 3462 3187 3686 
Q 3104 3910 2931 4105 
Q 2758 4301 2489 4425 
Q 2221 4550 1850 4550 
Q 1389 4550 1059 4348 
Q 730 4147 557 3785 
Q 384 3424 384 2944 
L 928 2944 
Q 928 3283 1037 3529 
Q 1146 3776 1354 3907 
Q 1562 4038 1850 4038 
Q 2054 4038 2214 3968 
Q 2374 3898 2486 3782 
Q 2598 3667 2656 3526 
Q 2714 3386 2714 3238 
Q 2714 3059 2659 2896 
Q 2605 2733 2499 2576 
Q 2394 2419 2246 2259 
L 128 0 
z
" transform="scale(0.015625)"/>
      <path id="Jost-Regular-b7" d="M 608 1536 
Q 608 1395 713 1289 
Q 819 1184 960 1184 
Q 1107 1184 1209 1289 
Q 1312 1395 1312 1536 
Q 1312 1683 1209 1785 
Q 1107 1888 960 1888 
Q 819 1888 713 1785 
Q 608 1683 608 1536 
z
" transform="scale(0.015625)"/>
      <path id="Jost-Regular-66" d="M 256 2944 
L 256 2464 
L 1728 2464 
L 1728 2944 
L 256 2944 
z
M 1677 4378 
L 1958 4800 
Q 1914 4864 1834 4921 
Q 1754 4979 1645 5017 
Q 1536 5056 1395 5056 
Q 1126 5056 937 4944 
Q 749 4832 646 4608 
Q 544 4384 544 4032 
L 544 0 
L 1056 0 
L 1056 3968 
Q 1056 4179 1094 4307 
Q 1133 4435 1200 4489 
Q 1267 4544 1363 4544 
Q 1440 4544 1526 4515 
Q 1613 4486 1677 4378 
z
" transform="scale(0.015625)"/>
      <path id="Jost-Regular-64" d="M 2688 4992 
L 2688 0 
L 3200 0 
L 3200 4992 
L 2688 4992 
z
M 224 1472 
Q 224 998 422 652 
Q 621 307 953 121 
Q 1286 -64 1683 -64 
Q 2054 -64 2329 121 
Q 2605 307 2761 652 
Q 2918 998 2918 1472 
Q 2918 1952 2761 2294 
Q 2605 2637 2329 2822 
Q 2054 3008 1683 3008 
Q 1286 3008 953 2822 
Q 621 2637 422 2294 
Q 224 1952 224 1472 
z
M 742 1472 
Q 742 1811 880 2048 
Q 1018 2285 1248 2406 
Q 1478 2528 1747 2528 
Q 1971 2528 2188 2406 
Q 2406 2285 2547 2048 
Q 2688 1811 2688 1472 
Q 2688 1133 2547 896 
Q 2406 659 2188 537 
Q 1971 416 1747 416 
Q 1478 416 1248 537 
Q 1018 659 880 896 
Q 742 1133 742 1472 
z
" transform="scale(0.015625)"/>
      <path id="Jost-Regular-2c" d="M 947 704 
L 384 -954 
L 755 -1088 
L 1459 512 
L 947 704 
z
" transform="scale(0.015625)"/>
     </defs>
     <use xlink:href="#Jost-Regular-74"/>
     <use xlink:href="#Jost-Regular-68" transform="translate(23.999985 0)"/>
     <use xlink:href="#Jost-Regular-65" transform="translate(76.499969 0)"/>
     <use xlink:href="#Jost-Regular-20" transform="translate(127.999954 0)"/>
     <use xlink:href="#Jost-Regular-32" transform="translate(157.999939 0)"/>
     <use xlink:href="#Jost-Regular-31" transform="translate(214.899933 0)"/>
     <use xlink:href="#Jost-Regular-31" transform="translate(259.899918 0)"/>
     <use xlink:href="#Jost-Regular-20" transform="translate(304.899902 0)"/>
     <use xlink:href="#Jost-Regular-63" transform="translate(334.899887 0)"/>
     <use xlink:href="#Jost-Regular-6f" transform="translate(382.699875 0)"/>
     <use xlink:href="#Jost-Regular-6e" transform="translate(437.299866 0)"/>
     <use xlink:href="#Jost-Regular-67" transform="translate(489.79985 0)"/>
     <use xlink:href="#Jost-Regular-72" transform="translate(546.799835 0)"/>
     <use xlink:href="#Jost-Regular-65" transform="translate(581.099823 0)"/>
     <use xlink:href="#Jost-Regular-73" transform="translate(632.599808 0)"/>
     <use xlink:href="#Jost-Regular-73" transform="translate(672.899796 0)"/>
     <use xlink:href="#Jost-Regular-20" transform="translate(713.199783 0)"/>
     <use xlink:href="#Jost-Regular-76" transform="translate(743.199768 0)"/>
     <use xlink:href="#Jost-Regular-6f" transform="translate(787.199753 0)"/>
     <use xlink:href="#Jost-Regular-74" transform="translate(841.799744 0)"/>
     <use xlink:href="#Jost-Regular-65" transform="translate(865.799728 0)"/>
     <use xlink:href="#Jost-Regular-73" transform="translate(917.299713 0)"/>
     <use xlink:href="#Jost-Regular-20" transform="translate(957.599701 0)"/>
     <use xlink:href="#Jost-Regular-b7" transform="translate(987.599686 0)"/>
     <use xlink:href="#Jost-Regular-20" transform="translate(1017.59967 0)"/>
     <use xlink:href="#Jost-Regular-6f" transform="translate(1047.599655 0)"/>
     <use xlink:href="#Jost-Regular-6e" transform="translate(1102.199646 0)"/>
     <use xlink:href="#Jost-Regular-65" transform="translate(1154.699631 0)"/>
     <use xlink:href="#Jost-Regular-20" transform="translate(1206.199615 0)"/>
     <use xlink:href="#Jost-Regular-66" transform="translate(1236.1996 0)"/>
     <use xlink:href="#Jost-Regular-65" transform="translate(1264.799591 0)"/>
     <use xlink:href="#Jost-Regular-64" transform="translate(1316.299576 0)"/>
     <use xlink:href="#Jost-Regular-65" transform="translate(1373.299561 0)"/>
     <use xlink:href="#Jost-Regular-72" transform="translate(1424.799545 0)"/>
     <use xlink:href="#Jost-Regular-61" transform="translate(1459.099533 0)"/>
     <use xlink:href="#Jost-Regular-74" transform="translate(1507.199524 0)"/>
     <use xlink:href="#Jost-Regular-69" transform="translate(1531.199509 0)"/>
     <use xlink:href="#Jost-Regular-6f" transform="translate(1557.199493 0)"/>
     <use xlink:href="#Jost-Regular-6e" transform="translate(1611.799484 0)"/>
     <use xlink:href="#Jost-Regular-2c" transform="translate(1664.299469 0)"/>
     <use xlink:href="#Jost-Regular-20" transform="translate(1695.099457 0)"/>
     <use xlink:href="#Jost-Regular-6f" transform="translate(1725.099442 0)"/>
     <use xlink:href="#Jost-Regular-6e" transform="translate(1779.699432 0)"/>
     <use xlink:href="#Jost-Regular-65" transform="translate(1832.199417 0)"/>
     <use xlink:href="#Jost-Regular-20" transform="translate(1883.699402 0)"/>
     <use xlink:href="#Jost-Regular-76" transform="translate(1913.699387 0)"/>
     <use xlink:href="#Jost-Regular-6f" transform="translate(1957.699371 0)"/>
     <use xlink:href="#Jost-Regular-74" transform="translate(2012.299362 0)"/>
     <use xlink:href="#Jost-Regular-65" transform="translate(2036.299347 0)"/>
    </g>
   </g>
  </g>
 </g>
 <defs>
  <clipPath id="pd1f9c19b6f">
   <rect x="0" y="0" width="460.8" height="148"/>
  </clipPath>
 </defs>
</svg>
