<svg viewBox="0 0 720 392" xmlns="http://www.w3.org/2000/svg" font-family="'Jost','Century Gothic',sans-serif">
<rect x="0" y="0" width="720" height="392" fill="#FAF8F3"/>
<text x="52" y="311.5" font-size="10" fill="#8c8c8c" text-anchor="end">3.5</text>
<text x="52" y="251.5" font-size="10" fill="#8c8c8c" text-anchor="end">4.0</text>
<text x="52" y="191.5" font-size="10" fill="#8c8c8c" text-anchor="end">4.5</text>
<text x="52" y="131.5" font-size="10" fill="#8c8c8c" text-anchor="end">5.0</text>
<text x="52" y="71.5" font-size="10" fill="#8c8c8c" text-anchor="end">5.5</text>
<line x1="60" y1="296.0" x2="700" y2="296.0" stroke="#b9b9b9" stroke-width="1" stroke-dasharray="5 4"/>
<text x="64" y="290.0" font-size="9.5" fill="#8c8c8c">niveau juli 2026 · tiefster stand seit mai 2002</text>
<line x1="60" y1="332.0" x2="700" y2="332.0" stroke="#141414" stroke-width="1.4"/>
<polyline points="60.0,74.0 166.7,92.0 273.3,128.0 380.0,140.0 486.7,188.0 593.3,224.0 700.0,296.0" fill="none" stroke="#141414" stroke-width="2.4"/>
<circle cx="60.0" cy="74.0" r="6" fill="#141414"/>
<text x="60.0" y="62.0" font-size="10.5" fill="#141414" text-anchor="middle" font-weight="600">5.5</text>
<text x="60.0" y="348.0" font-size="9.5" fill="#141414" text-anchor="middle">2020–21</text>
<circle cx="166.7" cy="92.0" r="6" fill="#FAF8F3" stroke="#141414" stroke-width="1.8"/>
<text x="166.7" y="80.0" font-size="10.5" fill="#141414" text-anchor="middle" font-weight="600">5.3</text>
<text x="166.7" y="348.0" font-size="9.5" fill="#141414" text-anchor="middle">2024-Q1</text>
<circle cx="273.3" cy="128.0" r="6" fill="#141414"/>
<text x="273.3" y="116.0" font-size="10.5" fill="#141414" text-anchor="middle" font-weight="600">5.0</text>
<text x="273.3" y="348.0" font-size="9.5" fill="#141414" text-anchor="middle">2025-Q3</text>
<circle cx="380.0" cy="140.0" r="6" fill="#141414"/>
<text x="380.0" y="128.0" font-size="10.5" fill="#141414" text-anchor="middle" font-weight="600">4.9</text>
<text x="380.0" y="348.0" font-size="9.5" fill="#141414" text-anchor="middle">2025-Q4</text>
<circle cx="486.7" cy="188.0" r="6" fill="#141414"/>
<text x="486.7" y="176.0" font-size="10.5" fill="#141414" text-anchor="middle" font-weight="600">4.5</text>
<text x="486.7" y="348.0" font-size="9.5" fill="#141414" text-anchor="middle">2026-Q1</text>
<circle cx="593.3" cy="224.0" r="6.5" fill="#E3000B"/>
<text x="593.3" y="242.0" font-size="10.5" fill="#E3000B" text-anchor="middle" font-weight="600">4.2</text>
<text x="593.3" y="348.0" font-size="9.5" fill="#141414" text-anchor="middle">2026-Q2</text>
<circle cx="700.0" cy="296.0" r="6" fill="#141414"/>
<text x="700.0" y="284.0" font-size="10.5" fill="#141414" text-anchor="middle" font-weight="600">3.6</text>
<text x="700.0" y="348.0" font-size="9.5" fill="#141414" text-anchor="middle">2026-Q3</text>
<text x="583.3" y="134.0" font-size="10.5" fill="#E3000B" text-anchor="end">juni 2026:</text>
<text x="583.3" y="147.0" font-size="10.5" fill="#E3000B" text-anchor="end">haushaltsüberschuss</text>
<line x1="585.3" y1="154.4" x2="592.3" y2="212.0" stroke="#E3000B" stroke-width="1"/>
</svg>